<svg id="Layer_1" data-name="Layer 1" xmlns="http://www.w3.org/2000/svg" viewBox="0 0 558.34 504.75"><defs><style>.cls-1,.cls-19,.cls-2,.cls-3,.cls-5{fill:#ff9802;}.cls-1,.cls-2{stroke:#f4900b;}.cls-1,.cls-19,.cls-2,.cls-20{stroke-miterlimit:10;}.cls-2{stroke-width:0.5px;}.cls-3{font-size:45px;}.cls-15,.cls-3,.cls-4{font-family:Raleway-Black, Raleway;font-weight:800;}.cls-4{font-size:20px;}.cls-15,.cls-16,.cls-4,.cls-7{fill:#fff;}.cls-5{font-size:38px;font-family:Raleway-Bold, Raleway;font-weight:700;}.cls-6{letter-spacing:-0.03em;}.cls-16,.cls-7{font-family:Raleway-Medium, Raleway;font-weight:500;}.cls-8{letter-spacing:0em;}.cls-9{letter-spacing:0em;}.cls-10{letter-spacing:-0.01em;}.cls-11{letter-spacing:-0.03em;}.cls-12{letter-spacing:-0.03em;}.cls-13{letter-spacing:-0.01em;}.cls-14{letter-spacing:0em;}.cls-15{font-size:30px;}.cls-16{font-size:16px;}.cls-17{letter-spacing:-0.07em;}.cls-18{letter-spacing:-0.02em;}.cls-19,.cls-20{stroke:#fff;}.cls-20{font-size:18px;fill:none;font-family:Raleway-Regular, Raleway;}.cls-21{letter-spacing:-0.01em;}.cls-22{letter-spacing:0em;}.cls-23{letter-spacing:-0.11em;}</style></defs><title>graph1</title><line class="cls-1" x1="52.44" y1="482.17" x2="557.84" y2="482.17"/><line class="cls-1" x1="52.44" y1="482.17" x2="52.44" y2="473.4"/><line class="cls-1" x1="557.84" y1="482.17" x2="557.84" y2="473.4"/><text x="-87" y="-75.25"/><text x="-87" y="-75.25"/><text x="-87" y="-75.25"/><text x="-87" y="-75.25"/><text x="-87" y="-75.25"/><line class="cls-1" x1="52.44" y1="482.17" x2="52.44" y2="131.09"/><line class="cls-1" x1="52.44" y1="482.17" x2="65.07" y2="482.17"/><line class="cls-1" x1="52.44" y1="394.4" x2="65.07" y2="394.4"/><line class="cls-1" x1="52.44" y1="306.63" x2="65.07" y2="306.63"/><line class="cls-1" x1="52.44" y1="218.86" x2="65.07" y2="218.86"/><line class="cls-1" x1="52.44" y1="131.09" x2="65.07" y2="131.09"/><rect class="cls-2" x="411.27" y="148.64" width="90.97" height="333.53"/><rect class="cls-2" x="310.19" y="320.67" width="90.97" height="161.5"/><rect class="cls-2" x="209.11" y="387.38" width="90.97" height="94.79"/><rect class="cls-2" x="108.03" y="406.69" width="90.97" height="75.48"/><text class="cls-3" transform="translate(127.24 395.6)">43</text><text class="cls-4" transform="translate(130.11 499.35)">1990</text><text class="cls-4" transform="translate(230.09 499.35)">2000</text><text class="cls-4" transform="translate(331.97 499.35)">2017</text><text class="cls-4" transform="translate(432.14 499.35)">2060</text><text class="cls-3" transform="translate(228.67 376.6)">54</text><text class="cls-3" transform="translate(328.77 310.6)">92</text><text class="cls-3" transform="translate(417.13 138.6)">190</text><text class="cls-5" transform="translate(178.13 32.49)">The Globa<tspan class="cls-6" x="186.88" y="0">l</tspan><tspan class="cls-7"><tspan class="cls-8" x="-58.01" y="45.6">M</tspan><tspan class="cls-9" x="-24.98" y="45.6">a</tspan><tspan class="cls-10" x="-4.08" y="45.6">t</tspan><tspan x="9.02" y="45.6">eria</tspan><tspan class="cls-11" x="75.07" y="45.6">l</tspan><tspan x="84.79" y="45.6"> </tspan><tspan class="cls-12" x="94.41" y="45.6">F</tspan><tspan x="115.35" y="45.6">o</tspan><tspan class="cls-13" x="138.11" y="45.6">o</tspan><tspan x="160.57" y="45.6">tpri</tspan><tspan class="cls-14" x="220.15" y="45.6">n</tspan><tspan x="242.38" y="45.6">t</tspan></tspan></text><text x="-87" y="-75.25"/><text class="cls-15" transform="translate(117.52 436.05) scale(0.6 1)">BILLION</text><text class="cls-15" transform="translate(218.52 416.05) scale(0.6 1)">BILLION</text><text class="cls-15" transform="translate(420.52 179.05) scale(0.6 1)">BILLION</text><text class="cls-16" transform="translate(427.58 200.05) scale(0.6 1)">(ESTIM<tspan class="cls-17" x="51.92" y="0">A</tspan><tspan x="61.68" y="0">TE</tspan><tspan class="cls-18" x="81.18" y="0">D</tspan><tspan x="92.37" y="0">)</tspan></text><text class="cls-15" transform="translate(319.52 350.05) scale(0.6 1)">BILLION</text><circle class="cls-19" cx="52.5" cy="108.25" r="52"/><text class="cls-20" transform="translate(26.35 101.1)"><tspan class="cls-21">M</tspan><tspan class="cls-22" x="15.66" y="0">e</tspan><tspan x="26.15" y="0">tric</tspan><tspan class="cls-23" x="6.71" y="21.6">T</tspan><tspan x="15.63" y="21.6">ons</tspan></text></svg>