<svg id="Layer_1" data-name="Layer 1" xmlns="http://www.w3.org/2000/svg" viewBox="0 0 1082.34 575.38"><defs><style>.cls-1,.cls-17,.cls-25{fill:#ff9802;}.cls-1{stroke:#f4900b;stroke-miterlimit:10;}.cls-11,.cls-2{font-size:35px;}.cls-12,.cls-18,.cls-2,.cls-26{fill:#fff;}.cls-11,.cls-12,.cls-2{font-family:Raleway-Bold, Raleway;font-weight:700;}.cls-3{letter-spacing:0em;}.cls-4{letter-spacing:0em;}.cls-5{letter-spacing:-0.01em;}.cls-6{letter-spacing:-0.03em;}.cls-7{letter-spacing:-0.03em;}.cls-8{letter-spacing:-0.01em;}.cls-9{letter-spacing:-0.02em;}.cls-10{letter-spacing:0em;}.cls-11,.cls-20{fill:#fcfcfc;}.cls-12{font-size:30px;}.cls-13{letter-spacing:-0.03em;}.cls-14{letter-spacing:-0.01em;}.cls-15{letter-spacing:0em;}.cls-16{letter-spacing:-0.02em;}.cls-17{font-size:43px;}.cls-17,.cls-18,.cls-20{font-family:Raleway-Black, Raleway;font-weight:800;}.cls-18,.cls-20{font-size:34px;}.cls-19{letter-spacing:0em;}.cls-21{letter-spacing:-0.02em;}.cls-22{letter-spacing:-0.01em;}.cls-23{letter-spacing:-0.01em;}.cls-24{letter-spacing:-0.02em;}.cls-27{letter-spacing:-0.01em;}.cls-28{letter-spacing:0em;}.cls-29{letter-spacing:0em;}.cls-30{letter-spacing:-0.11em;}</style></defs><title>graph2</title><line class="cls-1" x1="576.44" y1="436.8" x2="1081.84" y2="436.8"/><line class="cls-1" x1="576.44" y1="436.8" x2="576.44" y2="428.02"/><line class="cls-1" x1="1081.84" y1="436.8" x2="1081.84" y2="428.02"/><text x="-132" y="-120.63"/><text x="-132" y="-120.63"/><text x="-132" y="-120.63"/><text x="-132" y="-120.63"/><text x="-132" y="-120.63"/><text x="-132" y="-120.63"/><text x="-132" y="-120.63"/><line class="cls-1" x1="576.44" y1="436.8" x2="576.44" y2="85.71"/><line class="cls-1" x1="576.44" y1="436.8" x2="589.07" y2="436.8"/><line class="cls-1" x1="576.44" y1="378.28" x2="589.07" y2="378.28"/><line class="cls-1" x1="576.44" y1="319.77" x2="589.07" y2="319.77"/><line class="cls-1" x1="576.44" y1="261.25" x2="589.07" y2="261.25"/><line class="cls-1" x1="576.44" y1="202.74" x2="589.07" y2="202.74"/><line class="cls-1" x1="576.44" y1="144.23" x2="589.07" y2="144.23"/><line class="cls-1" x1="576.44" y1="85.71" x2="589.07" y2="85.71"/><rect class="cls-1" x="931.26" y="413.39" width="121.3" height="23.41"/><rect class="cls-1" x="773.49" y="237.85" width="121.3" height="198.95"/><rect class="cls-1" x="615.72" y="120.82" width="121.3" height="315.98"/><text class="cls-2" transform="translate(79.14 29.92)"><tspan class="cls-3">M</tspan><tspan class="cls-4" x="30.1" y="0">a</tspan><tspan class="cls-5" x="50.05" y="0">t</tspan><tspan x="63.03" y="0">eria</tspan><tspan class="cls-6" x="126.56" y="0">l</tspan><tspan x="136.57" y="0"> </tspan><tspan class="cls-7" x="144.97" y="0">F</tspan><tspan x="163.87" y="0">o</tspan><tspan class="cls-8" x="185.08" y="0">o</tspan><tspan x="206.04" y="0">tpri</tspan><tspan class="cls-3" x="264.14" y="0">n</tspan><tspan x="285.11" y="0">t pe</tspan><tspan class="cls-9" x="350.1" y="0">r</tspan><tspan x="362.81" y="0" xml:space="preserve"> Capita in High-In</tspan><tspan class="cls-10" x="650.92" y="0">c</tspan><tspan x="670.49" y="0">ome Cou</tspan><tspan class="cls-3" x="820.49" y="0">n</tspan><tspan x="841.46" y="0">tries</tspan></text><text class="cls-11" transform="translate(0 157.92)">60% Highe<tspan class="cls-9" x="177.94" y="0">r</tspan></text><text class="cls-12" transform="translate(566.4 410.24) rotate(-90)"><tspan class="cls-13">F</tspan><tspan x="16.2" y="0">o</tspan><tspan class="cls-14" x="34.38" y="0">o</tspan><tspan x="52.35" y="0">tpri</tspan><tspan class="cls-15" x="102.15" y="0">n</tspan><tspan x="120.12" y="0">t pe</tspan><tspan class="cls-16" x="175.83" y="0">r</tspan><tspan x="186.72" y="0" xml:space="preserve"> person</tspan></text><text class="cls-17" transform="translate(650.37 108.83)">27</text><text class="cls-18" transform="translate(630.31 487.26)">High-<tspan x="-16.25" y="40.8">In</tspan><tspan class="cls-19" x="15.64" y="40.8">c</tspan><tspan x="35.09" y="40.8">ome</tspan></text><text class="cls-20" transform="translate(948.92 487.26)">L<tspan class="cls-21" x="19.89" y="0">o</tspan><tspan class="cls-22" x="40.12" y="0">w</tspan><tspan x="69.12" y="0">-</tspan><tspan x="-20.86" y="40.8">In</tspan><tspan class="cls-19" x="11.03" y="40.8">c</tspan><tspan x="30.48" y="40.8">ome</tspan></text><text class="cls-18" transform="translate(780.96 474.26)"><tspan class="cls-23">U</tspan><tspan x="24.92" y="0">ppe</tspan><tspan class="cls-24" x="89.62" y="0">r</tspan><tspan x="-6.83" y="40.8">Middle</tspan><tspan x="-10.9" y="81.6">In</tspan><tspan class="cls-19" x="20.99" y="81.6">c</tspan><tspan x="40.44" y="81.6">ome</tspan></text><text class="cls-17" transform="translate(807.49 225.83)">17</text><text class="cls-17" transform="translate(977.12 403.83)">2</text><path class="cls-25" d="M153.17,302.93h-7.94v20.62h-4.79V302.93h-7.95V298.7h20.68Z" transform="translate(-132 -120.63)"/><path class="cls-25" d="M172.84,323.55h-4.69V313.26a5.16,5.16,0,0,0-.8-3.2,2.73,2.73,0,0,0-2.28-1,3.74,3.74,0,0,0-1.33.28,5.37,5.37,0,0,0-1.33.79,6.64,6.64,0,0,0-1.15,1.21,4.74,4.74,0,0,0-.77,1.54v10.71H155.8V298h4.69v10.6a7.1,7.1,0,0,1,2.75-2.74,7.76,7.76,0,0,1,3.83-1,6,6,0,0,1,2.9.62,4.64,4.64,0,0,1,1.75,1.62,6.69,6.69,0,0,1,.88,2.31,14.62,14.62,0,0,1,.24,2.66Z" transform="translate(-132 -120.63)"/><path class="cls-25" d="M181.94,323.9a7,7,0,0,1-2.48-.44,6,6,0,0,1-2-1.22,5.84,5.84,0,0,1-1.31-1.84,5.64,5.64,0,0,1-.47-2.31,5.07,5.07,0,0,1,.58-2.4,5.43,5.43,0,0,1,1.61-1.87,8,8,0,0,1,2.46-1.21,10.85,10.85,0,0,1,3.15-.44,14.57,14.57,0,0,1,2.4.21,9.47,9.47,0,0,1,2.08.6v-1.05a3.67,3.67,0,0,0-1-2.8,4.31,4.31,0,0,0-3.06-1,8.32,8.32,0,0,0-2.87.52,13.71,13.71,0,0,0-2.87,1.54l-1.44-3a13.58,13.58,0,0,1,7.63-2.35,8.93,8.93,0,0,1,6.15,1.95,7.13,7.13,0,0,1,2.18,5.62v5.7a1.61,1.61,0,0,0,.27,1,1.12,1.12,0,0,0,.85.35v4a10.6,10.6,0,0,1-2.06.24,3.11,3.11,0,0,1-2.05-.59,2.57,2.57,0,0,1-.89-1.57l-.11-1a8.05,8.05,0,0,1-3,2.45A8.58,8.58,0,0,1,181.94,323.9Zm1.33-3.43a6.09,6.09,0,0,0,2.26-.42,4,4,0,0,0,1.66-1.12,1.67,1.67,0,0,0,.77-1.33v-2.1a11.46,11.46,0,0,0-1.82-.51,9.61,9.61,0,0,0-1.89-.19,5,5,0,0,0-3,.82,2.52,2.52,0,0,0-.25,4.06A3.3,3.3,0,0,0,183.27,320.47Z" transform="translate(-132 -120.63)"/><path class="cls-25" d="M214.07,323.55h-4.69V313.26a5.32,5.32,0,0,0-.77-3.22,2.51,2.51,0,0,0-2.13-1,4.18,4.18,0,0,0-1.44.28,5.3,5.3,0,0,0-1.38.79,6.41,6.41,0,0,0-1.17,1.21,4.74,4.74,0,0,0-.77,1.54v10.71H197V305.21h4.23v3.39a7,7,0,0,1,2.94-2.72,9.37,9.37,0,0,1,4.34-1,5.5,5.5,0,0,1,2.8.63,4.44,4.44,0,0,1,1.68,1.65,7.05,7.05,0,0,1,.83,2.31,15.27,15.27,0,0,1,.22,2.62Z" transform="translate(-132 -120.63)"/><path class="cls-25" d="M226.57,302.66V298h4.69v4.66Zm0,20.89V305.21h4.69v18.34Z" transform="translate(-132 -120.63)"/><path class="cls-25" d="M252.54,323.55h-4.69V313.26a5.39,5.39,0,0,0-.77-3.22,2.54,2.54,0,0,0-2.14-1,4.17,4.17,0,0,0-1.43.28,5.3,5.3,0,0,0-1.38.79A6.16,6.16,0,0,0,241,311.3a5,5,0,0,0-.77,1.54v10.71h-4.69V305.21h4.24v3.39a6.87,6.87,0,0,1,2.94-2.72,9.34,9.34,0,0,1,4.34-1,5.55,5.55,0,0,1,2.8.63,4.59,4.59,0,0,1,1.68,1.65,7,7,0,0,1,.82,2.31,15.28,15.28,0,0,1,.23,2.62Z" transform="translate(-132 -120.63)"/><path class="cls-25" d="M270.63,323.9a5.21,5.21,0,0,1-4.3-1.82,8.43,8.43,0,0,1-1.47-5.39V305.21h4.69v10.46q0,4.24,3,4.24a4.79,4.79,0,0,0,2.64-.82,5.86,5.86,0,0,0,2.09-2.51V305.21H282v13a1.62,1.62,0,0,0,.26,1,1.13,1.13,0,0,0,.86.35v4a10,10,0,0,1-1.17.17c-.32,0-.61,0-.86,0a3.36,3.36,0,0,1-2.05-.58,2.26,2.26,0,0,1-.93-1.59l-.1-1.47a7.87,7.87,0,0,1-3.15,2.84A9.65,9.65,0,0,1,270.63,323.9Z" transform="translate(-132 -120.63)"/><path class="cls-25" d="M297.65,323.9a7.28,7.28,0,0,1-3.78-1,6.87,6.87,0,0,1-2.52-2.61V331h-4.69V305.21h4.1v3.15a7.49,7.49,0,0,1,2.62-2.54,7.3,7.3,0,0,1,3.71-.93,7.87,7.87,0,0,1,3.43.76,8.39,8.39,0,0,1,2.71,2,9.33,9.33,0,0,1,1.79,3,10.35,10.35,0,0,1,.65,3.65,11.51,11.51,0,0,1-.6,3.75,9.39,9.39,0,0,1-1.66,3,7.82,7.82,0,0,1-2.54,2A7.09,7.09,0,0,1,297.65,323.9Zm-1.57-4a4.26,4.26,0,0,0,1.94-.45,4.91,4.91,0,0,0,1.52-1.23,5.63,5.63,0,0,0,1-1.79,6.37,6.37,0,0,0,0-4.25,5.36,5.36,0,0,0-1.07-1.73,5,5,0,0,0-1.61-1.16,4.83,4.83,0,0,0-2-.42,4.47,4.47,0,0,0-1.37.23,4.74,4.74,0,0,0-1.29.65,5.54,5.54,0,0,0-1.07,1,4.09,4.09,0,0,0-.72,1.22v4.31a6.21,6.21,0,0,0,1.93,2.61A4.37,4.37,0,0,0,296.08,319.91Z" transform="translate(-132 -120.63)"/><path class="cls-25" d="M319.84,323.9a7.22,7.22,0,0,1-3.78-1,6.87,6.87,0,0,1-2.52-2.61V331h-4.69V305.21H313v3.15a7.49,7.49,0,0,1,2.62-2.54,7.27,7.27,0,0,1,3.71-.93,7.87,7.87,0,0,1,3.43.76,8.39,8.39,0,0,1,2.71,2,9.33,9.33,0,0,1,1.79,3,10.35,10.35,0,0,1,.65,3.65,11.51,11.51,0,0,1-.6,3.75,9.58,9.58,0,0,1-1.66,3,7.82,7.82,0,0,1-2.54,2A7.09,7.09,0,0,1,319.84,323.9Zm-1.57-4a4.26,4.26,0,0,0,1.94-.45,4.91,4.91,0,0,0,1.52-1.23,5.63,5.63,0,0,0,1-1.79,6.43,6.43,0,0,0,.35-2.1,6.12,6.12,0,0,0-.38-2.15,5.54,5.54,0,0,0-1.07-1.73A5,5,0,0,0,320,309.3a4.83,4.83,0,0,0-2-.42,4.47,4.47,0,0,0-1.37.23,4.6,4.6,0,0,0-1.29.65,5.54,5.54,0,0,0-1.07,1,3.89,3.89,0,0,0-.72,1.22v4.31a6.21,6.21,0,0,0,1.93,2.61A4.37,4.37,0,0,0,318.27,319.91Z" transform="translate(-132 -120.63)"/><path class="cls-25" d="M339.55,323.9a10.21,10.21,0,0,1-4-.75,9.2,9.2,0,0,1-3.05-2,9,9,0,0,1-1.94-3,9.54,9.54,0,0,1-.68-3.61,10.32,10.32,0,0,1,.66-3.69,9,9,0,0,1,1.93-3,9.07,9.07,0,0,1,3.06-2.08,10.07,10.07,0,0,1,4-.78,9.86,9.86,0,0,1,4,.78,9.2,9.2,0,0,1,3,2.06,8.73,8.73,0,0,1,1.89,3,10,10,0,0,1,.65,3.57c0,.3,0,.6,0,.87a3.15,3.15,0,0,1-.09.7H334.86a5.43,5.43,0,0,0,.52,1.93,4.73,4.73,0,0,0,1.09,1.44,5,5,0,0,0,1.5.91,4.93,4.93,0,0,0,1.75.31,5.43,5.43,0,0,0,2.64-.68,3.62,3.62,0,0,0,1.7-1.81l4,1.12a8.24,8.24,0,0,1-3.24,3.45A10,10,0,0,1,339.55,323.9Zm4.76-11.06a4.89,4.89,0,0,0-1.53-3.31,4.63,4.63,0,0,0-3.27-1.24,4.72,4.72,0,0,0-1.77.33,4.61,4.61,0,0,0-1.45.93,4.85,4.85,0,0,0-1,1.43,4.91,4.91,0,0,0-.47,1.86Z" transform="translate(-132 -120.63)"/><path class="cls-25" d="M362.93,309.27a9.28,9.28,0,0,0-3.82.82,4.84,4.84,0,0,0-2.41,2.37v11.09H352V305.21h4.3v3.92a8.22,8.22,0,0,1,1.16-1.7,8.78,8.78,0,0,1,1.43-1.31,6.7,6.7,0,0,1,1.56-.86A4.23,4.23,0,0,1,362,305h.58a2.21,2.21,0,0,1,.37,0Z" transform="translate(-132 -120.63)"/><path class="cls-25" d="M363.94,316.06v-4.23h10.61v4.23Z" transform="translate(-132 -120.63)"/><path class="cls-25" d="M407.17,323.55h-4.69V313.26a5.4,5.4,0,0,0-.76-3.22,2.43,2.43,0,0,0-2.08-1,3.93,3.93,0,0,0-2.62,1.07,5.84,5.84,0,0,0-1.75,2.79v10.67h-4.69V313.26a5.4,5.4,0,0,0-.76-3.22,2.43,2.43,0,0,0-2.08-1,4,4,0,0,0-2.61,1.06,5.71,5.71,0,0,0-1.76,2.76v10.71h-4.69V305.21h4.23v3.39a7.11,7.11,0,0,1,2.78-2.74,8.36,8.36,0,0,1,4.05-1,5.23,5.23,0,0,1,3.57,1.12,5.06,5.06,0,0,1,1.61,2.77,7.93,7.93,0,0,1,2.83-2.89,7.69,7.69,0,0,1,3.92-1,5.49,5.49,0,0,1,2.77.63,4.59,4.59,0,0,1,1.68,1.65,7,7,0,0,1,.82,2.31,15.28,15.28,0,0,1,.23,2.62Z" transform="translate(-132 -120.63)"/><path class="cls-25" d="M411.26,302.66V298H416v4.66Zm0,20.89V305.21H416v18.34Z" transform="translate(-132 -120.63)"/><path class="cls-25" d="M427.78,323.9a8.19,8.19,0,0,1-6.26-2.77,9.46,9.46,0,0,1-1.81-3,10.63,10.63,0,0,1-.64-3.73,10.9,10.9,0,0,1,.61-3.71,9.64,9.64,0,0,1,1.7-3,7.77,7.77,0,0,1,2.59-2,7.39,7.39,0,0,1,3.29-.74,6.87,6.87,0,0,1,3.65,1,7.05,7.05,0,0,1,2.54,2.55V298h4.69v20.16a1.69,1.69,0,0,0,.25,1,1.07,1.07,0,0,0,.84.35v4a11,11,0,0,1-2,.24,3.28,3.28,0,0,1-2.06-.62,2.3,2.3,0,0,1-.91-1.65l-.11-1.15A6.72,6.72,0,0,1,431.4,323,7.84,7.84,0,0,1,427.78,323.9Zm1.23-4a4.46,4.46,0,0,0,1.36-.23,5.08,5.08,0,0,0,1.3-.64,5.85,5.85,0,0,0,1.06-1,3.89,3.89,0,0,0,.72-1.22v-4.37a5.07,5.07,0,0,0-.79-1.42,5.8,5.8,0,0,0-1.15-1.12,5.57,5.57,0,0,0-1.37-.75,3.82,3.82,0,0,0-1.41-.29,4.31,4.31,0,0,0-2,.46,4.67,4.67,0,0,0-1.52,1.24,6,6,0,0,0-1,1.8,6.52,6.52,0,0,0-.35,2.1,5.74,5.74,0,0,0,.39,2.14,5.33,5.33,0,0,0,1.05,1.71,4.6,4.6,0,0,0,1.59,1.16A4.91,4.91,0,0,0,429,319.91Z" transform="translate(-132 -120.63)"/><path class="cls-25" d="M450.36,323.9a8.24,8.24,0,0,1-6.27-2.77,9.43,9.43,0,0,1-1.8-3,10.63,10.63,0,0,1-.65-3.73,10.9,10.9,0,0,1,.61-3.71,9.84,9.84,0,0,1,1.7-3,7.87,7.87,0,0,1,2.59-2,7.39,7.39,0,0,1,3.29-.74,6.93,6.93,0,0,1,3.66,1,7.13,7.13,0,0,1,2.54,2.55V298h4.69v20.16a1.77,1.77,0,0,0,.24,1,1.07,1.07,0,0,0,.84.35v4a10.86,10.86,0,0,1-2,.24,3.33,3.33,0,0,1-2.07-.62,2.3,2.3,0,0,1-.91-1.65l-.1-1.15A6.78,6.78,0,0,1,454,323,7.87,7.87,0,0,1,450.36,323.9Zm1.22-4a4.52,4.52,0,0,0,1.37-.23,5.18,5.18,0,0,0,1.29-.64,5.91,5.91,0,0,0,1.07-1,4.31,4.31,0,0,0,.72-1.22v-4.37a5.07,5.07,0,0,0-.79-1.42,5.85,5.85,0,0,0-1.16-1.12,5.51,5.51,0,0,0-1.36-.75,3.83,3.83,0,0,0-1.42-.29,4.23,4.23,0,0,0-1.94.46,4.57,4.57,0,0,0-1.52,1.24,6,6,0,0,0-1,1.8,6.26,6.26,0,0,0-.35,2.1,5.61,5.61,0,0,0,1.43,3.85,4.6,4.6,0,0,0,1.59,1.16A4.91,4.91,0,0,0,451.58,319.91Z" transform="translate(-132 -120.63)"/><path class="cls-25" d="M465.3,298H470v19.67a2.32,2.32,0,0,0,.49,1.58,1.77,1.77,0,0,0,1.4.55,3.64,3.64,0,0,0,.93-.13,5.77,5.77,0,0,0,1-.36l.63,3.57a8.62,8.62,0,0,1-2.2.7,11.64,11.64,0,0,1-2.28.25,4.69,4.69,0,0,1-3.41-1.17,4.44,4.44,0,0,1-1.21-3.35Z" transform="translate(-132 -120.63)"/><path class="cls-25" d="M484.94,323.9a10.22,10.22,0,0,1-4-.75,9.16,9.16,0,0,1-3-2,9,9,0,0,1-1.94-3,9.54,9.54,0,0,1-.69-3.61,10.32,10.32,0,0,1,.67-3.69,8.93,8.93,0,0,1,1.92-3,9.21,9.21,0,0,1,3.07-2.08,10.07,10.07,0,0,1,4-.78,9.86,9.86,0,0,1,4,.78,9.2,9.2,0,0,1,3,2.06,8.73,8.73,0,0,1,1.89,3,10,10,0,0,1,.64,3.57c0,.3,0,.6,0,.87a3.15,3.15,0,0,1-.09.7H480.25a5.23,5.23,0,0,0,.52,1.93,4.86,4.86,0,0,0,1.08,1.44,5.16,5.16,0,0,0,1.51.91,4.93,4.93,0,0,0,1.75.31,5.46,5.46,0,0,0,2.64-.68,3.62,3.62,0,0,0,1.7-1.81l4,1.12a8.24,8.24,0,0,1-3.24,3.45A10,10,0,0,1,484.94,323.9Zm4.75-11.06a4.84,4.84,0,0,0-1.52-3.31,4.65,4.65,0,0,0-3.27-1.24,4.72,4.72,0,0,0-1.77.33,4.5,4.5,0,0,0-1.45.93,4.85,4.85,0,0,0-1,1.43,5.1,5.1,0,0,0-.48,1.86Z" transform="translate(-132 -120.63)"/><path class="cls-25" d="M497.29,316.06v-4.23h10.6v4.23Z" transform="translate(-132 -120.63)"/><path class="cls-25" d="M512,302.66V298h4.69v4.66Zm0,20.89V305.21h4.69v18.34Z" transform="translate(-132 -120.63)"/><path class="cls-25" d="M538,323.55H533.3V313.26a5.32,5.32,0,0,0-.77-3.22,2.51,2.51,0,0,0-2.13-1,4.18,4.18,0,0,0-1.44.28,5.3,5.3,0,0,0-1.38.79,6.41,6.41,0,0,0-1.17,1.21,4.74,4.74,0,0,0-.77,1.54v10.71H521V305.21h4.23v3.39a7,7,0,0,1,2.94-2.72,9.37,9.37,0,0,1,4.34-1,5.5,5.5,0,0,1,2.8.63,4.44,4.44,0,0,1,1.68,1.65,7.05,7.05,0,0,1,.83,2.31,15.27,15.27,0,0,1,.22,2.62Z" transform="translate(-132 -120.63)"/><path class="cls-25" d="M540.93,314.38a10.05,10.05,0,0,1,.67-3.64,8.8,8.8,0,0,1,1.92-3,9.38,9.38,0,0,1,3.05-2.06,9.94,9.94,0,0,1,4-.78,9.67,9.67,0,0,1,5.13,1.3,8.26,8.26,0,0,1,3.17,3.39L554.3,311a4.1,4.1,0,0,0-1.57-1.55,4.56,4.56,0,0,0-4.06-.14,4.65,4.65,0,0,0-1.52,1.12,5.11,5.11,0,0,0-1,1.73,6.66,6.66,0,0,0-.37,2.24,6.2,6.2,0,0,0,.39,2.24,5.7,5.7,0,0,0,1,1.75,4.57,4.57,0,0,0,1.52,1.14,4.41,4.41,0,0,0,1.86.4,4.53,4.53,0,0,0,2.33-.63,3.52,3.52,0,0,0,1.48-1.54l4.59,1.4a7.72,7.72,0,0,1-3.12,3.43,9.73,9.73,0,0,1-5.21,1.33,10.16,10.16,0,0,1-4-.77,9.09,9.09,0,0,1-5-5.13A9.67,9.67,0,0,1,540.93,314.38Z" transform="translate(-132 -120.63)"/><path class="cls-25" d="M570.12,323.9a10.11,10.11,0,0,1-4-.77,9.09,9.09,0,0,1-3-2.08,9.38,9.38,0,0,1-1.91-3,10,10,0,0,1-.66-3.6,10.1,10.1,0,0,1,.66-3.65,9.23,9.23,0,0,1,1.91-3,8.94,8.94,0,0,1,3-2.08,9.94,9.94,0,0,1,4-.78,9.83,9.83,0,0,1,4,.78,9,9,0,0,1,3,2.08,9.07,9.07,0,0,1,1.91,3,10.1,10.1,0,0,1,.66,3.65,10,10,0,0,1-.66,3.6,9.33,9.33,0,0,1-1.89,3,8.9,8.9,0,0,1-3,2.08A10.13,10.13,0,0,1,570.12,323.9Zm-4.79-9.48a6.31,6.31,0,0,0,.37,2.22,5.4,5.4,0,0,0,1,1.73,4.57,4.57,0,0,0,1.52,1.14,4.48,4.48,0,0,0,1.89.4,4.42,4.42,0,0,0,1.89-.4,4.61,4.61,0,0,0,1.53-1.14,5.29,5.29,0,0,0,1-1.75,6.87,6.87,0,0,0,0-4.45,5.5,5.5,0,0,0-1-1.75,4.58,4.58,0,0,0-1.53-1.13,4.43,4.43,0,0,0-1.89-.41,4.35,4.35,0,0,0-1.89.42,4.77,4.77,0,0,0-1.52,1.16,5.29,5.29,0,0,0-1,1.75A6.33,6.33,0,0,0,565.33,314.42Z" transform="translate(-132 -120.63)"/><path class="cls-25" d="M611.35,323.55h-4.69V313.26a5.48,5.48,0,0,0-.75-3.22,2.45,2.45,0,0,0-2.08-1,4,4,0,0,0-2.63,1.07,5.91,5.91,0,0,0-1.75,2.79v10.67h-4.69V313.26A5.48,5.48,0,0,0,594,310a2.45,2.45,0,0,0-2.08-1,4,4,0,0,0-2.61,1.06,5.66,5.66,0,0,0-1.77,2.76v10.71h-4.69V305.21h4.24v3.39a7,7,0,0,1,2.78-2.74,8.35,8.35,0,0,1,4-1,5.23,5.23,0,0,1,3.57,1.12,5,5,0,0,1,1.61,2.77,8,8,0,0,1,2.84-2.89,7.69,7.69,0,0,1,3.92-1,5.42,5.42,0,0,1,2.76.63,4.44,4.44,0,0,1,1.68,1.65,7.05,7.05,0,0,1,.83,2.31,15.27,15.27,0,0,1,.22,2.62Z" transform="translate(-132 -120.63)"/><path class="cls-25" d="M624,323.9a10.21,10.21,0,0,1-4-.75,9.16,9.16,0,0,1-3-2,9,9,0,0,1-1.94-3,9.54,9.54,0,0,1-.69-3.61,10.32,10.32,0,0,1,.67-3.69,8.93,8.93,0,0,1,5-5.12,10.07,10.07,0,0,1,4-.78,9.86,9.86,0,0,1,4,.78,9.31,9.31,0,0,1,3,2.06,9,9,0,0,1,1.89,3,10,10,0,0,1,.64,3.57c0,.3,0,.6,0,.87a5,5,0,0,1-.09.7H619.26a5.43,5.43,0,0,0,.53,1.93,4.86,4.86,0,0,0,1.08,1.44,5.16,5.16,0,0,0,1.51.91,4.93,4.93,0,0,0,1.75.31,5.46,5.46,0,0,0,2.64-.68,3.62,3.62,0,0,0,1.7-1.81l4,1.12a8.15,8.15,0,0,1-3.23,3.45A10.05,10.05,0,0,1,624,323.9Zm4.76-11.06a4.84,4.84,0,0,0-1.52-3.31,4.65,4.65,0,0,0-3.27-1.24,4.72,4.72,0,0,0-1.77.33,4.5,4.5,0,0,0-1.45.93,4.68,4.68,0,0,0-1,1.43,5.1,5.1,0,0,0-.48,1.86Z" transform="translate(-132 -120.63)"/><path class="cls-25" d="M133,356.38a9.85,9.85,0,0,1,.67-3.64,8.8,8.8,0,0,1,1.92-3,9.27,9.27,0,0,1,3.05-2.06,9.94,9.94,0,0,1,4-.78,9.67,9.67,0,0,1,5.13,1.3,8.32,8.32,0,0,1,3.17,3.39l-4.59,1.4a4.12,4.12,0,0,0-1.58-1.55,4.4,4.4,0,0,0-2.17-.55,4.49,4.49,0,0,0-1.89.41,4.65,4.65,0,0,0-1.52,1.12,5.09,5.09,0,0,0-1,1.73,6.88,6.88,0,0,0,0,4.48,5.72,5.72,0,0,0,1,1.75,4.57,4.57,0,0,0,1.52,1.14,4.34,4.34,0,0,0,1.85.4,4.5,4.5,0,0,0,2.33-.63,3.54,3.54,0,0,0,1.49-1.54l4.58,1.4a7.64,7.64,0,0,1-3.11,3.43,9.76,9.76,0,0,1-5.22,1.33,10.11,10.11,0,0,1-4-.77,9.27,9.27,0,0,1-3.05-2.08,9.5,9.5,0,0,1-1.94-3.05A9.86,9.86,0,0,1,133,356.38Z" transform="translate(-132 -120.63)"/><path class="cls-25" d="M162.17,365.9a10.08,10.08,0,0,1-4-.77,9.09,9.09,0,0,1-3-2.08,9.21,9.21,0,0,1-1.91-3,10,10,0,0,1-.67-3.6,10.11,10.11,0,0,1,.67-3.65,9.07,9.07,0,0,1,1.91-3,8.94,8.94,0,0,1,3-2.08,10.72,10.72,0,0,1,8,0,9,9,0,0,1,4.91,5.1,9.9,9.9,0,0,1,.67,3.65,9.75,9.75,0,0,1-.67,3.6,9.47,9.47,0,0,1-1.88,3,8.94,8.94,0,0,1-3,2.08A10.11,10.11,0,0,1,162.17,365.9Zm-4.79-9.48a6.54,6.54,0,0,0,.36,2.22,5.61,5.61,0,0,0,1,1.73,4.57,4.57,0,0,0,1.52,1.14,4.67,4.67,0,0,0,3.78,0,4.57,4.57,0,0,0,1.52-1.14,5.49,5.49,0,0,0,1-1.75,7.06,7.06,0,0,0,0-4.45,5.71,5.71,0,0,0-1-1.75,4.54,4.54,0,0,0-1.52-1.13,4.43,4.43,0,0,0-1.89-.41,4.29,4.29,0,0,0-1.89.42,4.77,4.77,0,0,0-1.52,1.16,5.49,5.49,0,0,0-1,1.75A6.57,6.57,0,0,0,157.38,356.42Z" transform="translate(-132 -120.63)"/><path class="cls-25" d="M180.51,365.9a5.23,5.23,0,0,1-4.31-1.82,8.43,8.43,0,0,1-1.47-5.39V347.21h4.69v10.46q0,4.24,3.05,4.24a4.79,4.79,0,0,0,2.64-.82,5.84,5.84,0,0,0,2.08-2.51V347.21h4.69v13a1.61,1.61,0,0,0,.27,1,1.12,1.12,0,0,0,.85.35v4a9.41,9.41,0,0,1-1.17.17c-.31,0-.6,0-.86,0a3.31,3.31,0,0,1-2-.58,2.23,2.23,0,0,1-.93-1.59l-.11-1.47a7.74,7.74,0,0,1-3.15,2.84A9.58,9.58,0,0,1,180.51,365.9Z" transform="translate(-132 -120.63)"/><path class="cls-25" d="M213.58,365.55h-4.69V355.26a5.32,5.32,0,0,0-.77-3.22,2.51,2.51,0,0,0-2.13-1,4.18,4.18,0,0,0-1.44.28,5.3,5.3,0,0,0-1.38.79A6.41,6.41,0,0,0,202,353.3a4.74,4.74,0,0,0-.77,1.54v10.71h-4.69V347.21h4.23v3.39a7,7,0,0,1,2.94-2.72,9.37,9.37,0,0,1,4.34-1,5.5,5.5,0,0,1,2.8.63,4.44,4.44,0,0,1,1.68,1.65,7.05,7.05,0,0,1,.83,2.31,15.27,15.27,0,0,1,.22,2.62Z" transform="translate(-132 -120.63)"/><path class="cls-25" d="M228.49,364.6a19.06,19.06,0,0,1-2.31.84,9.68,9.68,0,0,1-2.87.43,6.74,6.74,0,0,1-1.83-.25,4,4,0,0,1-1.51-.79,3.9,3.9,0,0,1-1-1.4,5,5,0,0,1-.39-2.08V350.81h-2.41v-3.6h2.41v-5.95h4.69v5.95h3.85v3.6h-3.85v9a1.67,1.67,0,0,0,.51,1.39,1.92,1.92,0,0,0,1.24.4,4.2,4.2,0,0,0,1.44-.25c.47-.16.84-.3,1.12-.42Z" transform="translate(-132 -120.63)"/><path class="cls-25" d="M241.86,351.27a9.26,9.26,0,0,0-3.81.82,4.86,4.86,0,0,0-2.42,2.37v11.09h-4.69V347.21h4.31v3.92a8.59,8.59,0,0,1,1.15-1.7,9.27,9.27,0,0,1,1.44-1.31,6.7,6.7,0,0,1,1.56-.86,4.23,4.23,0,0,1,1.52-.3h.58a2.09,2.09,0,0,1,.36,0Z" transform="translate(-132 -120.63)"/><path class="cls-25" d="M244.49,344.66V340h4.69v4.66Zm0,20.89V347.21h4.69v18.34Z" transform="translate(-132 -120.63)"/><path class="cls-25" d="M261.92,365.9a10.21,10.21,0,0,1-4-.75,9,9,0,0,1-5-5.06,9.73,9.73,0,0,1-.68-3.61,10.32,10.32,0,0,1,.66-3.69,9,9,0,0,1,5-5.12,10.07,10.07,0,0,1,4-.78,9.83,9.83,0,0,1,4,.78,9.2,9.2,0,0,1,3,2.06,8.73,8.73,0,0,1,1.89,3,10,10,0,0,1,.65,3.57c0,.3,0,.6,0,.87a3.15,3.15,0,0,1-.09.7H257.23a5.43,5.43,0,0,0,.52,1.93,4.89,4.89,0,0,0,1.09,1.44,4.8,4.8,0,0,0,3.25,1.22,5.47,5.47,0,0,0,2.65-.68,3.64,3.64,0,0,0,1.69-1.81l4,1.12a8.24,8.24,0,0,1-3.24,3.45A10,10,0,0,1,261.92,365.9Zm4.76-11.06a4.93,4.93,0,0,0-1.52-3.31,4.93,4.93,0,0,0-5-.91,4.55,4.55,0,0,0-1.46.93,4.85,4.85,0,0,0-1,1.43,5.1,5.1,0,0,0-.47,1.86Z" transform="translate(-132 -120.63)"/><path class="cls-25" d="M281.31,365.9a14.21,14.21,0,0,1-4.52-.73,11.2,11.2,0,0,1-3.78-2.11l1.75-2.93a15.12,15.12,0,0,0,3.28,1.8,8.69,8.69,0,0,0,3.16.61,3.93,3.93,0,0,0,2.21-.53,1.66,1.66,0,0,0,.8-1.5,1.49,1.49,0,0,0-.94-1.43,19.94,19.94,0,0,0-3.08-1.06c-1.19-.32-2.21-.64-3.05-.94a8,8,0,0,1-2-1,3.68,3.68,0,0,1-1.12-1.33,4.28,4.28,0,0,1-.35-1.8,5.63,5.63,0,0,1,.55-2.53,5.49,5.49,0,0,1,1.52-1.9,7,7,0,0,1,2.29-1.21,9.35,9.35,0,0,1,2.85-.42,12.16,12.16,0,0,1,3.87.6,9.34,9.34,0,0,1,3.31,1.92l-1.89,2.83a11.11,11.11,0,0,0-2.71-1.54,7.62,7.62,0,0,0-2.61-.49,3.85,3.85,0,0,0-2,.49,1.73,1.73,0,0,0-.8,1.58,1.48,1.48,0,0,0,.19.8,1.78,1.78,0,0,0,.61.57,6.05,6.05,0,0,0,1.11.47c.45.15,1,.31,1.69.47,1.26.33,2.34.65,3.24,1a9.09,9.09,0,0,1,2.21,1.12,4,4,0,0,1,1.26,1.45,4.6,4.6,0,0,1,.4,2,5.1,5.1,0,0,1-2,4.25A8.56,8.56,0,0,1,281.31,365.9Z" transform="translate(-132 -120.63)"/><path class="cls-25" d="M305.18,365.9a7,7,0,0,1-2.49-.44,6,6,0,0,1-2-1.22,5.68,5.68,0,0,1-1.31-1.84,5.49,5.49,0,0,1-.48-2.31,5.19,5.19,0,0,1,.58-2.4,5.54,5.54,0,0,1,1.61-1.87,8,8,0,0,1,2.47-1.21,10.8,10.8,0,0,1,3.15-.44,14.67,14.67,0,0,1,2.4.21,9.63,9.63,0,0,1,2.08.6v-1.05a3.71,3.71,0,0,0-1-2.8,4.32,4.32,0,0,0-3.07-1,8.36,8.36,0,0,0-2.87.52,13.71,13.71,0,0,0-2.87,1.54l-1.43-3a13.58,13.58,0,0,1,7.63-2.35,8.92,8.92,0,0,1,6.14,1.95,7.1,7.1,0,0,1,2.19,5.62v5.7a1.68,1.68,0,0,0,.26,1,1.15,1.15,0,0,0,.86.35v4a10.7,10.7,0,0,1-2.07.24,3.08,3.08,0,0,1-2-.59,2.58,2.58,0,0,1-.9-1.57l-.1-1a8.17,8.17,0,0,1-3,2.45A8.5,8.5,0,0,1,305.18,365.9Zm1.33-3.43a6.17,6.17,0,0,0,2.26-.42,4.09,4.09,0,0,0,1.66-1.12,1.7,1.7,0,0,0,.77-1.33v-2.1a11.76,11.76,0,0,0-1.82-.51,9.61,9.61,0,0,0-1.89-.19,5,5,0,0,0-3,.82,2.53,2.53,0,0,0-.24,4.06A3.28,3.28,0,0,0,306.51,362.47Z" transform="translate(-132 -120.63)"/><path class="cls-25" d="M337.31,365.55h-4.69V355.26a5.39,5.39,0,0,0-.77-3.22,2.54,2.54,0,0,0-2.14-1,4.17,4.17,0,0,0-1.43.28,5.3,5.3,0,0,0-1.38.79,6.16,6.16,0,0,0-1.18,1.21,5,5,0,0,0-.77,1.54v10.71h-4.69V347.21h4.24v3.39a6.87,6.87,0,0,1,2.94-2.72,9.34,9.34,0,0,1,4.34-1,5.55,5.55,0,0,1,2.8.63,4.59,4.59,0,0,1,1.68,1.65,7,7,0,0,1,.82,2.31,15.28,15.28,0,0,1,.23,2.62Z" transform="translate(-132 -120.63)"/><path class="cls-25" d="M349,365.9a8.24,8.24,0,0,1-6.27-2.77,9.43,9.43,0,0,1-1.8-3,10.63,10.63,0,0,1-.65-3.73,10.9,10.9,0,0,1,.62-3.71,9.62,9.62,0,0,1,1.69-3,8,8,0,0,1,2.59-2,7.42,7.42,0,0,1,3.29-.74,6.88,6.88,0,0,1,3.66,1,7.05,7.05,0,0,1,2.54,2.55V340h4.69v20.16a1.77,1.77,0,0,0,.24,1,1.1,1.1,0,0,0,.84.35v4a10.76,10.76,0,0,1-2,.24,3.33,3.33,0,0,1-2.07-.62,2.34,2.34,0,0,1-.91-1.65l-.1-1.15a6.72,6.72,0,0,1-2.75,2.64A7.84,7.84,0,0,1,349,365.9Zm1.22-4a4.47,4.47,0,0,0,1.37-.23,5,5,0,0,0,1.29-.64,5.59,5.59,0,0,0,1.07-1,4.09,4.09,0,0,0,.72-1.22v-4.37a5.07,5.07,0,0,0-.79-1.42,5.85,5.85,0,0,0-2.52-1.87,3.83,3.83,0,0,0-1.42-.29,4.27,4.27,0,0,0-1.94.46,4.67,4.67,0,0,0-1.52,1.24,6,6,0,0,0-1,1.8,6.26,6.26,0,0,0-.35,2.1,5.94,5.94,0,0,0,.38,2.14,5.7,5.7,0,0,0,1.05,1.71,4.74,4.74,0,0,0,1.6,1.16A4.87,4.87,0,0,0,350.22,361.91Z" transform="translate(-132 -120.63)"/><path class="cls-25" d="M400.87,365.55h-4.69V355.26a5.48,5.48,0,0,0-.75-3.22,2.46,2.46,0,0,0-2.09-1,3.93,3.93,0,0,0-2.62,1.07,5.84,5.84,0,0,0-1.75,2.79v10.67h-4.69V355.26a5.48,5.48,0,0,0-.75-3.22,2.46,2.46,0,0,0-2.09-1,4,4,0,0,0-2.61,1.06,5.71,5.71,0,0,0-1.76,2.76v10.71h-4.69V347.21h4.23v3.39a7.07,7.07,0,0,1,2.79-2.74,8.3,8.3,0,0,1,4-1A5.23,5.23,0,0,1,387,348a5.06,5.06,0,0,1,1.61,2.77,7.93,7.93,0,0,1,2.83-2.89,7.72,7.72,0,0,1,3.92-1,5.49,5.49,0,0,1,2.77.63,4.59,4.59,0,0,1,1.68,1.65,7,7,0,0,1,.82,2.31,15.28,15.28,0,0,1,.23,2.62Z" transform="translate(-132 -120.63)"/><path class="cls-25" d="M413.43,365.9a10.11,10.11,0,0,1-4-.77,9.09,9.09,0,0,1-3-2.08,9.38,9.38,0,0,1-1.91-3,10,10,0,0,1-.66-3.6,10.1,10.1,0,0,1,.66-3.65,9.23,9.23,0,0,1,1.91-3,8.94,8.94,0,0,1,3-2.08,9.94,9.94,0,0,1,4-.78,9.83,9.83,0,0,1,4,.78,9,9,0,0,1,3,2.08,9.23,9.23,0,0,1,1.91,3,10.1,10.1,0,0,1,.66,3.65,10,10,0,0,1-.66,3.6,9.68,9.68,0,0,1-1.89,3,8.9,8.9,0,0,1-3,2.08A10.13,10.13,0,0,1,413.43,365.9Zm-4.79-9.48a6.31,6.31,0,0,0,.37,2.22,5.4,5.4,0,0,0,1,1.73,4.57,4.57,0,0,0,1.52,1.14,4.48,4.48,0,0,0,1.89.4,4.42,4.42,0,0,0,1.89-.4,4.61,4.61,0,0,0,1.53-1.14,5.29,5.29,0,0,0,1-1.75,6.87,6.87,0,0,0,0-4.45,5.5,5.5,0,0,0-1-1.75,4.58,4.58,0,0,0-1.53-1.13,4.43,4.43,0,0,0-1.89-.41,4.35,4.35,0,0,0-1.89.42,4.77,4.77,0,0,0-1.52,1.16,5.29,5.29,0,0,0-1,1.75A6.33,6.33,0,0,0,408.64,356.42Z" transform="translate(-132 -120.63)"/><path class="cls-25" d="M437.09,351.27a9.26,9.26,0,0,0-3.81.82,4.86,4.86,0,0,0-2.42,2.37v11.09h-4.69V347.21h4.31v3.92a8.18,8.18,0,0,1,1.15-1.7,8.84,8.84,0,0,1,1.44-1.31,6.85,6.85,0,0,1,1.55-.86,4.33,4.33,0,0,1,1.53-.3h.57a2.1,2.1,0,0,1,.37,0Z" transform="translate(-132 -120.63)"/><path class="cls-25" d="M447.31,365.9a10.21,10.21,0,0,1-4-.75,9.07,9.07,0,0,1-5-5.06,9.73,9.73,0,0,1-.68-3.61,10.11,10.11,0,0,1,.67-3.69,8.93,8.93,0,0,1,1.92-3,9.07,9.07,0,0,1,3.06-2.08,10.12,10.12,0,0,1,4.05-.78,9.78,9.78,0,0,1,4,.78,9.1,9.1,0,0,1,3,2.06,8.73,8.73,0,0,1,1.89,3,9.82,9.82,0,0,1,.65,3.57c0,.3,0,.6,0,.87a4,4,0,0,1-.08.7H442.62a5.43,5.43,0,0,0,.53,1.93,4.86,4.86,0,0,0,1.08,1.44,5.16,5.16,0,0,0,1.51.91,4.93,4.93,0,0,0,1.75.31,5.46,5.46,0,0,0,2.64-.68,3.66,3.66,0,0,0,1.7-1.81l4,1.12a8.11,8.11,0,0,1-3.24,3.45A10,10,0,0,1,447.31,365.9Zm4.76-11.06a4.84,4.84,0,0,0-1.52-3.31,4.65,4.65,0,0,0-3.27-1.24,4.72,4.72,0,0,0-1.77.33,4.5,4.5,0,0,0-1.45.93,4.88,4.88,0,0,0-1,1.43,5.31,5.31,0,0,0-.47,1.86Z" transform="translate(-132 -120.63)"/><path class="cls-25" d="M479.16,364.6a19.06,19.06,0,0,1-2.31.84,9.73,9.73,0,0,1-2.87.43,6.87,6.87,0,0,1-1.84-.25,4,4,0,0,1-1.5-.79,3.79,3.79,0,0,1-1-1.4,5,5,0,0,1-.39-2.08V350.81h-2.41v-3.6h2.41v-5.95h4.69v5.95h3.85v3.6h-3.85v9a1.67,1.67,0,0,0,.51,1.39,1.92,1.92,0,0,0,1.24.4,4.2,4.2,0,0,0,1.44-.25c.46-.16.84-.3,1.12-.42Z" transform="translate(-132 -120.63)"/><path class="cls-25" d="M498.66,365.55H494V355.26a5.16,5.16,0,0,0-.81-3.2,2.71,2.71,0,0,0-2.27-1,3.69,3.69,0,0,0-1.33.28,5.19,5.19,0,0,0-1.33.79,6.69,6.69,0,0,0-1.16,1.21,4.74,4.74,0,0,0-.77,1.54v10.71h-4.69V340h4.69v10.6a7.1,7.1,0,0,1,2.75-2.74,7.76,7.76,0,0,1,3.83-1,6,6,0,0,1,2.91.62,4.72,4.72,0,0,1,1.75,1.62,6.67,6.67,0,0,1,.87,2.31,14.62,14.62,0,0,1,.25,2.66Z" transform="translate(-132 -120.63)"/><path class="cls-25" d="M507.76,365.9a7,7,0,0,1-2.49-.44,6,6,0,0,1-2-1.22A5.87,5.87,0,0,1,502,362.4a5.64,5.64,0,0,1-.47-2.31,5.07,5.07,0,0,1,.58-2.4,5.43,5.43,0,0,1,1.61-1.87,8,8,0,0,1,2.47-1.21,10.75,10.75,0,0,1,3.15-.44,14.55,14.55,0,0,1,2.39.21,9.56,9.56,0,0,1,2.09.6v-1.05a3.67,3.67,0,0,0-1-2.8,4.29,4.29,0,0,0-3.06-1,8.32,8.32,0,0,0-2.87.52,13.71,13.71,0,0,0-2.87,1.54l-1.43-3a13.56,13.56,0,0,1,7.63-2.35,8.92,8.92,0,0,1,6.14,1.95,7.1,7.1,0,0,1,2.19,5.62v5.7a1.62,1.62,0,0,0,.26,1,1.13,1.13,0,0,0,.86.35v4a10.78,10.78,0,0,1-2.07.24,3.11,3.11,0,0,1-2-.59,2.62,2.62,0,0,1-.89-1.57l-.1-1a8.17,8.17,0,0,1-3,2.45A8.53,8.53,0,0,1,507.76,365.9Zm1.33-3.43a6.08,6.08,0,0,0,2.25-.42,4.06,4.06,0,0,0,1.67-1.12,1.7,1.7,0,0,0,.77-1.33v-2.1A11.76,11.76,0,0,0,512,357a9.77,9.77,0,0,0-1.89-.19,5,5,0,0,0-3,.82,2.53,2.53,0,0,0-.24,4.06A3.26,3.26,0,0,0,509.09,362.47Z" transform="translate(-132 -120.63)"/><path class="cls-25" d="M539.89,365.55H535.2V355.26a5.39,5.39,0,0,0-.77-3.22,2.54,2.54,0,0,0-2.14-1,4.13,4.13,0,0,0-1.43.28,5.52,5.52,0,0,0-1.39.79,6.41,6.41,0,0,0-1.17,1.21,4.74,4.74,0,0,0-.77,1.54v10.71h-4.69V347.21h4.24v3.39a6.87,6.87,0,0,1,2.94-2.72,9.34,9.34,0,0,1,4.34-1,5.55,5.55,0,0,1,2.8.63,4.59,4.59,0,0,1,1.68,1.65,7,7,0,0,1,.82,2.31,15.28,15.28,0,0,1,.23,2.62Z" transform="translate(-132 -120.63)"/><path class="cls-26" d="M142.61,396.4h-.09L137,399l-1.13-5.13,7.75-3.61h5.65v29.25h-6.62Z" transform="translate(-132 -120.63)"/><path class="cls-26" d="M160.08,412.85a15.92,15.92,0,0,0,6.81,1.78c3.55,0,5.35-1.7,5.34-3.88,0-2.9-2.87-4.21-5.89-4.22h-2.79v-4.91h2.67c2.29,0,5.18-.9,5.18-3.36,0-1.75-1.42-3.06-4.3-3.06A13.08,13.08,0,0,0,161,397L159.59,392a18.2,18.2,0,0,1,9-2.21c6.25,0,9.71,3.28,9.71,7.3,0,3.07-1.77,5.52-5.35,6.78V404c3.51.63,6.34,3.28,6.34,7.13,0,5.16-4.55,8.93-12,8.93a17.28,17.28,0,0,1-8.68-2Z" transform="translate(-132 -120.63)"/><path class="cls-26" d="M198.12,395h-8.18v-5.76h23.34V395H205v24.57h-6.86Z" transform="translate(-132 -120.63)"/><path class="cls-26" d="M223.79,389.22v30.33h-6.86V389.22Z" transform="translate(-132 -120.63)"/><path class="cls-26" d="M255.39,408c-.15-3.68-.28-8.05-.27-12.49H255c-1,3.88-2.24,8.19-3.38,11.77l-3.72,11.82h-5.33l-3.27-11.72c-1-3.57-2-7.88-2.73-11.87h-.1c-.15,4.12-.32,8.8-.5,12.58l-.57,11.51h-6.34L231,389.22h9.14l3,10.14c1,3.47,1.9,7.29,2.57,10.84h.15c.83-3.51,1.85-7.51,2.88-10.89l3.23-10.09h9l1.62,30.33h-6.66Z" transform="translate(-132 -120.63)"/><path class="cls-26" d="M285.84,406.72H274.68v7.21h12.48v5.62H267.82V389.22h18.69v5.62H274.68v6.32h11.16Z" transform="translate(-132 -120.63)"/><path class="cls-26" d="M292.08,412.47a16.85,16.85,0,0,0,7.6,1.91c3.15,0,4.82-1.31,4.82-3.31s-1.45-3-5.08-4.24c-5.06-1.79-8.37-4.55-8.37-9,0-5.17,4.35-9.1,11.48-9.1a18.15,18.15,0,0,1,7.74,1.52l-1.52,5.5a14.57,14.57,0,0,0-6.33-1.44c-3,0-4.41,1.39-4.41,2.94,0,1.92,1.68,2.78,5.62,4.26,5.37,2,7.85,4.8,7.85,9.08,0,5.07-3.87,9.41-12.22,9.41a19.62,19.62,0,0,1-8.57-1.88Z" transform="translate(-132 -120.63)"/><path class="cls-25" d="M153.17,440.93h-7.94v20.62h-4.79V440.93h-7.95V436.7h20.68Z" transform="translate(-132 -120.63)"/><path class="cls-25" d="M172.84,461.55h-4.69V451.26a5.16,5.16,0,0,0-.8-3.2,2.73,2.73,0,0,0-2.28-1,3.74,3.74,0,0,0-1.33.28,5.37,5.37,0,0,0-1.33.79,6.64,6.64,0,0,0-1.15,1.21,4.74,4.74,0,0,0-.77,1.54v10.71H155.8V436h4.69v10.6a7.1,7.1,0,0,1,2.75-2.74,7.76,7.76,0,0,1,3.83-1,6,6,0,0,1,2.9.62,4.64,4.64,0,0,1,1.75,1.62,6.69,6.69,0,0,1,.88,2.31,14.62,14.62,0,0,1,.24,2.66Z" transform="translate(-132 -120.63)"/><path class="cls-25" d="M185.44,461.9a10.21,10.21,0,0,1-4-.75,9.16,9.16,0,0,1-3-2,9,9,0,0,1-1.94-3,9.54,9.54,0,0,1-.69-3.61,10.32,10.32,0,0,1,.67-3.69,8.93,8.93,0,0,1,5-5.12,10.07,10.07,0,0,1,4-.78,9.86,9.86,0,0,1,4,.78,9.31,9.31,0,0,1,3,2.06,9,9,0,0,1,1.89,3,10,10,0,0,1,.64,3.57c0,.3,0,.6,0,.87a3.87,3.87,0,0,1-.09.7H180.75a5.43,5.43,0,0,0,.53,1.93,4.86,4.86,0,0,0,1.08,1.44,5.16,5.16,0,0,0,1.51.91,4.93,4.93,0,0,0,1.75.31,5.46,5.46,0,0,0,2.64-.68A3.62,3.62,0,0,0,190,456l4,1.12a8.15,8.15,0,0,1-3.23,3.45A10.05,10.05,0,0,1,185.44,461.9Zm4.76-11.06a4.84,4.84,0,0,0-1.52-3.31,4.65,4.65,0,0,0-3.27-1.24,4.72,4.72,0,0,0-1.77.33,4.5,4.5,0,0,0-1.45.93,4.68,4.68,0,0,0-1,1.43,5.1,5.1,0,0,0-.48,1.86Z" transform="translate(-132 -120.63)"/><path class="cls-25" d="M206.27,436H211v19.67a2.32,2.32,0,0,0,.49,1.58,1.77,1.77,0,0,0,1.4.55,3.64,3.64,0,0,0,.93-.13,6.12,6.12,0,0,0,1-.36l.63,3.57a8.7,8.7,0,0,1-2.21.7,11.47,11.47,0,0,1-2.27.25,4.69,4.69,0,0,1-3.41-1.17,4.44,4.44,0,0,1-1.21-3.35Z" transform="translate(-132 -120.63)"/><path class="cls-25" d="M225.9,461.9a10.21,10.21,0,0,1-4-.75,9.16,9.16,0,0,1-3-2,9,9,0,0,1-1.94-3,9.54,9.54,0,0,1-.69-3.61,10.32,10.32,0,0,1,.67-3.69,8.93,8.93,0,0,1,5-5.12,10.07,10.07,0,0,1,4-.78,9.86,9.86,0,0,1,4,.78,9.31,9.31,0,0,1,3,2.06,9,9,0,0,1,1.89,3,10,10,0,0,1,.64,3.57c0,.3,0,.6,0,.87a3.87,3.87,0,0,1-.09.7H221.21a5.43,5.43,0,0,0,.53,1.93,4.86,4.86,0,0,0,1.08,1.44,5.16,5.16,0,0,0,1.51.91,4.93,4.93,0,0,0,1.75.31,5.46,5.46,0,0,0,2.64-.68,3.62,3.62,0,0,0,1.7-1.81l4,1.12a8.15,8.15,0,0,1-3.23,3.45A10.05,10.05,0,0,1,225.9,461.9Zm4.76-11.06a4.84,4.84,0,0,0-1.52-3.31,4.65,4.65,0,0,0-3.27-1.24,4.72,4.72,0,0,0-1.77.33,4.5,4.5,0,0,0-1.45.93,4.68,4.68,0,0,0-1,1.43,5.1,5.1,0,0,0-.48,1.86Z" transform="translate(-132 -120.63)"/><path class="cls-25" d="M242.81,461.55l-6.76-18.34h4.83l4.66,14.52,4.69-14.52h4.41l-6.76,18.34Z" transform="translate(-132 -120.63)"/><path class="cls-25" d="M265,461.9a10.21,10.21,0,0,1-4-.75,9.16,9.16,0,0,1-3-2,9,9,0,0,1-1.94-3,9.54,9.54,0,0,1-.69-3.61,10.32,10.32,0,0,1,.67-3.69,8.93,8.93,0,0,1,5-5.12,10.07,10.07,0,0,1,4-.78,9.86,9.86,0,0,1,4,.78,9.31,9.31,0,0,1,3,2.06,9,9,0,0,1,1.89,3,10,10,0,0,1,.64,3.57c0,.3,0,.6,0,.87a3.87,3.87,0,0,1-.09.7H260.27a5.43,5.43,0,0,0,.53,1.93,4.86,4.86,0,0,0,1.08,1.44,5.16,5.16,0,0,0,1.51.91,4.93,4.93,0,0,0,1.75.31,5.46,5.46,0,0,0,2.64-.68,3.62,3.62,0,0,0,1.7-1.81l4,1.12a8.15,8.15,0,0,1-3.23,3.45A10.05,10.05,0,0,1,265,461.9Zm4.76-11.06a4.84,4.84,0,0,0-1.52-3.31,4.65,4.65,0,0,0-3.27-1.24,4.72,4.72,0,0,0-1.77.33,4.5,4.5,0,0,0-1.45.93,4.68,4.68,0,0,0-1,1.43,5.1,5.1,0,0,0-.48,1.86Z" transform="translate(-132 -120.63)"/><path class="cls-25" d="M277.39,436h4.69v19.67a2.32,2.32,0,0,0,.49,1.58,1.77,1.77,0,0,0,1.4.55,3.64,3.64,0,0,0,.93-.13,6.12,6.12,0,0,0,1-.36l.63,3.57a8.7,8.7,0,0,1-2.21.7,11.47,11.47,0,0,1-2.27.25,4.69,4.69,0,0,1-3.41-1.17,4.44,4.44,0,0,1-1.21-3.35Z" transform="translate(-132 -120.63)"/><path class="cls-25" d="M304.3,461.9a10.11,10.11,0,0,1-4-.77,9.09,9.09,0,0,1-3-2.08,9.38,9.38,0,0,1-1.91-3,10,10,0,0,1-.66-3.6,10.1,10.1,0,0,1,.66-3.65,9.23,9.23,0,0,1,1.91-3,8.94,8.94,0,0,1,3-2.08,9.94,9.94,0,0,1,4-.78,9.83,9.83,0,0,1,4,.78,9,9,0,0,1,3,2.08,9.23,9.23,0,0,1,1.91,3,10.1,10.1,0,0,1,.66,3.65,10,10,0,0,1-.66,3.6,9.68,9.68,0,0,1-1.89,3,8.9,8.9,0,0,1-3,2.08A10.13,10.13,0,0,1,304.3,461.9Zm-4.79-9.48a6.31,6.31,0,0,0,.37,2.22,5.4,5.4,0,0,0,1,1.73,4.57,4.57,0,0,0,1.52,1.14,4.48,4.48,0,0,0,1.89.4,4.42,4.42,0,0,0,1.89-.4,4.61,4.61,0,0,0,1.53-1.14,5.29,5.29,0,0,0,1-1.75,6.87,6.87,0,0,0,0-4.45,5.5,5.5,0,0,0-1-1.75,4.58,4.58,0,0,0-1.53-1.13,4.43,4.43,0,0,0-1.89-.41,4.35,4.35,0,0,0-1.89.42,4.77,4.77,0,0,0-1.52,1.16,5.29,5.29,0,0,0-1,1.75A6.33,6.33,0,0,0,299.51,452.42Z" transform="translate(-132 -120.63)"/><path class="cls-25" d="M317.88,461.55V447.76h-2.41v-3.57h2.41v-1.12a8.26,8.26,0,0,1,1.65-5.43,5.49,5.49,0,0,1,4.48-2,10.43,10.43,0,0,1,4.51,1.08l-.94,3.54a6,6,0,0,0-1.24-.47,5.1,5.1,0,0,0-1.32-.2c-1.63,0-2.45,1.1-2.45,3.29v1.3h4.48v3.57h-4.48v13.79Z" transform="translate(-132 -120.63)"/><path class="cls-25" d="M337.83,461.55V436.7h4.83v20.61h12.67v4.24Z" transform="translate(-132 -120.63)"/><path class="cls-25" d="M365.55,461.9a10.11,10.11,0,0,1-4-.77,9.09,9.09,0,0,1-3-2.08,9.38,9.38,0,0,1-1.91-3,10,10,0,0,1-.66-3.6,10.1,10.1,0,0,1,.66-3.65,9.23,9.23,0,0,1,1.91-3,8.94,8.94,0,0,1,3-2.08,9.94,9.94,0,0,1,4-.78,9.83,9.83,0,0,1,4,.78,9,9,0,0,1,3,2.08,9.23,9.23,0,0,1,1.91,3,10.1,10.1,0,0,1,.66,3.65,10,10,0,0,1-.66,3.6,9.68,9.68,0,0,1-1.89,3,8.9,8.9,0,0,1-3,2.08A10.13,10.13,0,0,1,365.55,461.9Zm-4.79-9.48a6.31,6.31,0,0,0,.37,2.22,5.4,5.4,0,0,0,1,1.73,4.57,4.57,0,0,0,1.52,1.14,4.48,4.48,0,0,0,1.89.4,4.42,4.42,0,0,0,1.89-.4,4.48,4.48,0,0,0,1.52-1.14,5.31,5.31,0,0,0,1-1.75,6.87,6.87,0,0,0,0-4.45,5.52,5.52,0,0,0-1-1.75,4.53,4.53,0,0,0-3.41-1.54,4.35,4.35,0,0,0-1.89.42,4.77,4.77,0,0,0-1.52,1.16,5.29,5.29,0,0,0-1,1.75A6.33,6.33,0,0,0,360.76,452.42Z" transform="translate(-132 -120.63)"/><path class="cls-25" d="M400.38,443.21h4.44l-7.66,18.34h-3.85l-3.15-8.05L387,461.55h-3.85l-7.63-18.34H380l5.46,13.93,2.24-5.95-3.22-7.94h3.78l1.93,5.63,2-5.63h3.78l-3.19,7.94,2.21,5.95Z" transform="translate(-132 -120.63)"/><path class="cls-25" d="M406.29,454.06v-4.23H416.9v4.23Z" transform="translate(-132 -120.63)"/><path class="cls-25" d="M421.48,461.55V436.7h4.83v24.85Z" transform="translate(-132 -120.63)"/><path class="cls-25" d="M448.08,461.55h-4.69V451.26a5.39,5.39,0,0,0-.77-3.22,2.51,2.51,0,0,0-2.13-1,4.18,4.18,0,0,0-1.44.28,5.3,5.3,0,0,0-1.38.79,6.41,6.41,0,0,0-1.17,1.21,4.74,4.74,0,0,0-.77,1.54v10.71H431V443.21h4.23v3.39a7,7,0,0,1,2.94-2.72,9.34,9.34,0,0,1,4.34-1,5.53,5.53,0,0,1,2.8.63,4.59,4.59,0,0,1,1.68,1.65,6.82,6.82,0,0,1,.82,2.31,14.34,14.34,0,0,1,.23,2.62Z" transform="translate(-132 -120.63)"/><path class="cls-25" d="M451,452.38a9.85,9.85,0,0,1,.67-3.64,8.8,8.8,0,0,1,1.92-3,9.38,9.38,0,0,1,3.05-2.06,9.94,9.94,0,0,1,4-.78,9.67,9.67,0,0,1,5.13,1.3,8.26,8.26,0,0,1,3.17,3.39l-4.59,1.4a4.17,4.17,0,0,0-1.57-1.55,4.56,4.56,0,0,0-4.06-.14,4.69,4.69,0,0,0-1.53,1.12,5.09,5.09,0,0,0-1,1.73,6.42,6.42,0,0,0-.37,2.24,6.2,6.2,0,0,0,.39,2.24,5.51,5.51,0,0,0,1,1.75,4.57,4.57,0,0,0,1.52,1.14,4.35,4.35,0,0,0,1.86.4,4.47,4.47,0,0,0,2.32-.63,3.49,3.49,0,0,0,1.49-1.54l4.59,1.4a7.72,7.72,0,0,1-3.12,3.43,9.75,9.75,0,0,1-5.21,1.33,10.13,10.13,0,0,1-4-.77,9.23,9.23,0,0,1-3-2.08A9.36,9.36,0,0,1,451.7,456,9.86,9.86,0,0,1,451,452.38Z" transform="translate(-132 -120.63)"/><path class="cls-25" d="M480.21,461.9a10.11,10.11,0,0,1-4-.77,9.09,9.09,0,0,1-3-2.08,9.21,9.21,0,0,1-1.91-3,10,10,0,0,1-.66-3.6,10.1,10.1,0,0,1,.66-3.65,9.07,9.07,0,0,1,1.91-3,8.94,8.94,0,0,1,3-2.08,10.72,10.72,0,0,1,8,0,9,9,0,0,1,3,2.08,9.23,9.23,0,0,1,1.91,3,10.1,10.1,0,0,1,.66,3.65,10,10,0,0,1-.66,3.6,9.68,9.68,0,0,1-1.89,3,8.9,8.9,0,0,1-3,2.08A10.16,10.16,0,0,1,480.21,461.9Zm-4.79-9.48a6.54,6.54,0,0,0,.36,2.22,5.61,5.61,0,0,0,1,1.73,4.57,4.57,0,0,0,1.52,1.14,4.67,4.67,0,0,0,3.78,0,4.57,4.57,0,0,0,1.52-1.14,5.31,5.31,0,0,0,1-1.75,6.87,6.87,0,0,0,0-4.45,5.52,5.52,0,0,0-1-1.75,4.54,4.54,0,0,0-1.52-1.13,4.43,4.43,0,0,0-1.89-.41,4.29,4.29,0,0,0-1.89.42,4.77,4.77,0,0,0-1.52,1.16,5.49,5.49,0,0,0-1,1.75A6.57,6.57,0,0,0,475.42,452.42Z" transform="translate(-132 -120.63)"/><path class="cls-25" d="M521.44,461.55h-4.69V451.26A5.48,5.48,0,0,0,516,448a2.45,2.45,0,0,0-2.08-1,4,4,0,0,0-2.63,1.07,5.84,5.84,0,0,0-1.75,2.79v10.67h-4.69V451.26a5.48,5.48,0,0,0-.75-3.22,2.45,2.45,0,0,0-2.08-1,4,4,0,0,0-2.61,1.06,5.66,5.66,0,0,0-1.77,2.76v10.71H493V443.21h4.24v3.39a7,7,0,0,1,2.78-2.74,8.32,8.32,0,0,1,4-1,5.23,5.23,0,0,1,3.57,1.12,5,5,0,0,1,1.61,2.77,8,8,0,0,1,2.84-2.89,7.69,7.69,0,0,1,3.92-1,5.42,5.42,0,0,1,2.76.63,4.59,4.59,0,0,1,1.68,1.65,6.82,6.82,0,0,1,.82,2.31,15.28,15.28,0,0,1,.23,2.62Z" transform="translate(-132 -120.63)"/><path class="cls-25" d="M534,461.9a10.21,10.21,0,0,1-4-.75,9.07,9.07,0,0,1-5-5.06,9.73,9.73,0,0,1-.68-3.61,10.11,10.11,0,0,1,.67-3.69,8.93,8.93,0,0,1,1.92-3,9.07,9.07,0,0,1,3.06-2.08,10.09,10.09,0,0,1,4.05-.78,9.81,9.81,0,0,1,4,.78,9.2,9.2,0,0,1,3,2.06,8.73,8.73,0,0,1,1.89,3,10,10,0,0,1,.65,3.57c0,.3,0,.6,0,.87a4,4,0,0,1-.08.7H529.35a5.43,5.43,0,0,0,.53,1.93,4.86,4.86,0,0,0,1.08,1.44,5,5,0,0,0,1.51.91,4.93,4.93,0,0,0,1.75.31,5.46,5.46,0,0,0,2.64-.68,3.66,3.66,0,0,0,1.7-1.81l4,1.12a8.24,8.24,0,0,1-3.24,3.45A10,10,0,0,1,534,461.9Zm4.76-11.06a4.88,4.88,0,0,0-1.52-3.31,4.65,4.65,0,0,0-3.27-1.24,4.72,4.72,0,0,0-1.77.33,4.5,4.5,0,0,0-1.45.93,4.88,4.88,0,0,0-1,1.43,5.1,5.1,0,0,0-.47,1.86Z" transform="translate(-132 -120.63)"/><path class="cls-25" d="M133.08,491a12.84,12.84,0,0,1,.83-4.5,12.14,12.14,0,0,1,6.24-6.81,12,12,0,0,1,5.18-1.08,11.35,11.35,0,0,1,5.94,1.5A9.73,9.73,0,0,1,155,484l-3.71,2.56a6.61,6.61,0,0,0-1.19-1.77,6.19,6.19,0,0,0-1.51-1.14,6.91,6.91,0,0,0-1.68-.61,7.88,7.88,0,0,0-1.72-.19,6.61,6.61,0,0,0-3.16.73,6.93,6.93,0,0,0-2.24,1.91,8.25,8.25,0,0,0-1.35,2.66,10.2,10.2,0,0,0-.46,3,9.67,9.67,0,0,0,.53,3.17,8.38,8.38,0,0,0,1.49,2.67,7.32,7.32,0,0,0,2.31,1.86,6.27,6.27,0,0,0,3,.7,7.8,7.8,0,0,0,1.75-.21,6.86,6.86,0,0,0,1.73-.66,6.76,6.76,0,0,0,1.52-1.18,5.33,5.33,0,0,0,1.12-1.73l4,2.27a7.53,7.53,0,0,1-1.7,2.47,11.14,11.14,0,0,1-2.49,1.8,12.51,12.51,0,0,1-2.95,1.13,13.37,13.37,0,0,1-3.08.38,10.55,10.55,0,0,1-4.87-1.12,12.73,12.73,0,0,1-3.8-2.92,13.46,13.46,0,0,1-2.48-4.1A12.67,12.67,0,0,1,133.08,491Z" transform="translate(-132 -120.63)"/><path class="cls-25" d="M166.61,503.9a10.11,10.11,0,0,1-4-.77,9.09,9.09,0,0,1-3-2.08,9.38,9.38,0,0,1-1.91-3,10,10,0,0,1-.66-3.6,10.1,10.1,0,0,1,.66-3.65,9.23,9.23,0,0,1,1.91-3,8.94,8.94,0,0,1,3-2.08,9.94,9.94,0,0,1,4-.78,9.83,9.83,0,0,1,4,.78,9,9,0,0,1,3,2.08,9.07,9.07,0,0,1,1.91,3,10.1,10.1,0,0,1,.66,3.65,10,10,0,0,1-.66,3.6,9.33,9.33,0,0,1-1.89,3,8.9,8.9,0,0,1-3,2.08A10.13,10.13,0,0,1,166.61,503.9Zm-4.79-9.48a6.31,6.31,0,0,0,.37,2.22,5.4,5.4,0,0,0,1,1.73,4.57,4.57,0,0,0,1.52,1.14,4.48,4.48,0,0,0,1.89.4,4.42,4.42,0,0,0,1.89-.4,4.51,4.51,0,0,0,1.53-1.14,5.29,5.29,0,0,0,1-1.75,6.87,6.87,0,0,0,0-4.45,5.5,5.5,0,0,0-1-1.75,4.48,4.48,0,0,0-1.53-1.13,4.43,4.43,0,0,0-1.89-.41,4.35,4.35,0,0,0-1.89.42,4.77,4.77,0,0,0-1.52,1.16,5.29,5.29,0,0,0-1,1.75A6.33,6.33,0,0,0,161.82,494.42Z" transform="translate(-132 -120.63)"/><path class="cls-25" d="M185,503.9a5.21,5.21,0,0,1-4.3-1.82,8.43,8.43,0,0,1-1.47-5.39V485.21h4.69v10.46q0,4.24,3,4.24a4.85,4.85,0,0,0,2.65-.82,5.91,5.91,0,0,0,2.08-2.51V485.21h4.69v13a1.68,1.68,0,0,0,.26,1,1.15,1.15,0,0,0,.86.35v4a10,10,0,0,1-1.17.17c-.32,0-.6,0-.86,0a3.36,3.36,0,0,1-2-.58,2.3,2.3,0,0,1-.93-1.59l-.1-1.47a7.87,7.87,0,0,1-3.15,2.84A9.62,9.62,0,0,1,185,503.9Z" transform="translate(-132 -120.63)"/><path class="cls-25" d="M218,503.55h-4.69V493.26a5.39,5.39,0,0,0-.77-3.22,2.53,2.53,0,0,0-2.14-1,4.17,4.17,0,0,0-1.43.28,5.3,5.3,0,0,0-1.38.79,6.16,6.16,0,0,0-1.18,1.21,5,5,0,0,0-.77,1.54v10.71H201V485.21h4.24v3.39a7,7,0,0,1,2.94-2.72,9.34,9.34,0,0,1,4.34-1,5.53,5.53,0,0,1,2.8.63,4.59,4.59,0,0,1,1.68,1.65,6.82,6.82,0,0,1,.82,2.31,15.28,15.28,0,0,1,.23,2.62Z" transform="translate(-132 -120.63)"/><path class="cls-25" d="M232.94,502.6a19.06,19.06,0,0,1-2.31.84,9.73,9.73,0,0,1-2.87.43,6.82,6.82,0,0,1-1.84-.25,4,4,0,0,1-1.5-.79,3.81,3.81,0,0,1-1-1.4,5.15,5.15,0,0,1-.38-2.08V488.81h-2.42v-3.6H223v-5.95h4.69v5.95h3.85v3.6h-3.85v9a1.67,1.67,0,0,0,.51,1.39,1.9,1.9,0,0,0,1.24.4,4.1,4.1,0,0,0,1.43-.25c.47-.16.84-.3,1.12-.42Z" transform="translate(-132 -120.63)"/><path class="cls-25" d="M246.31,489.27a9.28,9.28,0,0,0-3.82.82,4.84,4.84,0,0,0-2.41,2.37v11.09h-4.69V485.21h4.3v3.92a8.22,8.22,0,0,1,1.16-1.7,8.78,8.78,0,0,1,1.43-1.31,7.12,7.12,0,0,1,1.56-.86,4.27,4.27,0,0,1,1.52-.3h.58a2.21,2.21,0,0,1,.37,0Z" transform="translate(-132 -120.63)"/><path class="cls-25" d="M248.93,482.66V478h4.69v4.66Zm0,20.89V485.21h4.69v18.34Z" transform="translate(-132 -120.63)"/><path class="cls-25" d="M266.36,503.9a10.21,10.21,0,0,1-4-.75,9.16,9.16,0,0,1-3-2,9,9,0,0,1-1.94-3,9.54,9.54,0,0,1-.69-3.61,10.11,10.11,0,0,1,.67-3.69,8.93,8.93,0,0,1,5-5.12,10,10,0,0,1,4-.78,9.86,9.86,0,0,1,4,.78,9.31,9.31,0,0,1,3,2.06,9,9,0,0,1,1.89,3,10,10,0,0,1,.64,3.57c0,.3,0,.6,0,.87a5,5,0,0,1-.09.7H261.67a5.43,5.43,0,0,0,.53,1.93,4.86,4.86,0,0,0,1.08,1.44,5.16,5.16,0,0,0,1.51.91,4.93,4.93,0,0,0,1.75.31,5.46,5.46,0,0,0,2.64-.68,3.66,3.66,0,0,0,1.7-1.81l4,1.12a8.15,8.15,0,0,1-3.23,3.45A10.05,10.05,0,0,1,266.36,503.9Zm4.76-11.06a4.84,4.84,0,0,0-1.52-3.31,4.65,4.65,0,0,0-3.27-1.24,4.72,4.72,0,0,0-1.77.33,4.5,4.5,0,0,0-1.45.93,4.68,4.68,0,0,0-1,1.43,5.1,5.1,0,0,0-.48,1.86Z" transform="translate(-132 -120.63)"/><path class="cls-25" d="M285.75,503.9a14.15,14.15,0,0,1-4.51-.73,11.2,11.2,0,0,1-3.78-2.11l1.75-2.93a15.3,15.3,0,0,0,3.27,1.8,8.74,8.74,0,0,0,3.17.61,3.89,3.89,0,0,0,2.2-.53,1.67,1.67,0,0,0,.81-1.5,1.5,1.5,0,0,0-1-1.43,19.56,19.56,0,0,0-3.08-1.06c-1.19-.32-2.2-.64-3-.94a7.81,7.81,0,0,1-2-1,3.49,3.49,0,0,1-1.12-1.33,4.13,4.13,0,0,1-.35-1.8,5.76,5.76,0,0,1,.54-2.53,5.49,5.49,0,0,1,1.52-1.9,7,7,0,0,1,2.3-1.21,9.26,9.26,0,0,1,2.85-.42,12.25,12.25,0,0,1,3.87.6,9.22,9.22,0,0,1,3.3,1.92l-1.89,2.83a10.93,10.93,0,0,0-2.71-1.54,7.53,7.53,0,0,0-2.61-.49,3.81,3.81,0,0,0-2,.49,1.72,1.72,0,0,0-.81,1.58,1.48,1.48,0,0,0,.2.8,1.69,1.69,0,0,0,.61.57,6.23,6.23,0,0,0,1.1.47c.46.15,1,.31,1.7.47,1.26.33,2.34.65,3.24,1a9,9,0,0,1,2.2,1.12,4,4,0,0,1,1.26,1.45,4.46,4.46,0,0,1,.4,2,5.09,5.09,0,0,1-2,4.25A8.59,8.59,0,0,1,285.75,503.9Z" transform="translate(-132 -120.63)"/><text class="cls-12" transform="translate(646.26 160.67) scale(0.6 1)"><tspan class="cls-27">M<tspan class="cls-28" x="25.74" y="0">e</tspan><tspan class="cls-29" x="43.59" y="0">tric</tspan></tspan><tspan class="cls-30" x="12.47" y="36">T</tspan><tspan x="27.61" y="36">ons</tspan></text><text class="cls-12" transform="translate(803.26 272.67) scale(0.6 1)"><tspan class="cls-27">M<tspan class="cls-28" x="25.74" y="0">e</tspan><tspan class="cls-29" x="43.59" y="0">tric</tspan></tspan><tspan class="cls-30" x="12.47" y="36">T</tspan><tspan x="27.61" y="36">ons</tspan></text></svg>