<svg id="Layer_1" data-name="Layer 1" xmlns="http://www.w3.org/2000/svg" xmlns:xlink="http://www.w3.org/1999/xlink" viewBox="0 0 248.07 252.05"><defs><style>.cls-1{fill:none;}.cls-2{fill:#ff9802;}.cls-3{isolation:isolate;}.cls-4{clip-path:url(#clip-path);}.cls-5{clip-path:url(#clip-path-2);}.cls-6{fill:#a86401;}.cls-7{fill:#a36101;}.cls-8{fill:#9e5e01;}.cls-9{fill:#995b01;}.cls-10{fill:#945801;}.cls-11{fill:#8f5501;}.cls-12{fill:#8a5201;}.cls-13{fill:#854f01;}.cls-14{fill:#ad6701;}.cls-15{fill:#b36a01;}.cls-16{fill:#b86d01;}.cls-17{fill:#bd7001;}.cls-18{fill:#c27402;}.cls-19{fill:#c77702;}.cls-20{fill:#cc7a02;}.cls-21{fill:#d17d02;}.cls-22{fill:#d68002;}.cls-23{fill:#db8302;}.cls-24{fill:#e08602;}.cls-25{fill:#e68902;}.cls-26{fill:#eb8c02;}.cls-27{fill:#f08f02;}.cls-28{fill:#f59202;}.cls-29{fill:#fa9502;}.cls-30{fill:#ffa420;}.cls-31{fill:#ffa92d;}.cls-32{fill:#ffad37;}.cls-33{fill:#ffb13f;}.cls-34{fill:#ffb446;}.cls-35{fill:#ffb64c;}.cls-36{fill:#ffb952;}.cls-37{fill:#ffbb58;}.cls-38{fill:#ffbd5d;}.cls-39{fill:#ffbf62;}.cls-40{fill:#ffc167;}.cls-41{fill:#ffc36b;}.cls-42{fill:#ffc56f;}.cls-43{fill:#ffc674;}.cls-44{fill:#ffc878;}.cls-45{fill:#ffc97b;}.cls-46{fill:#ffcb7f;}.cls-47{fill:#ffcc83;}.cls-48{fill:#ffce86;}.cls-49{clip-path:url(#clip-path-3);}.cls-50{clip-path:url(#clip-path-4);}</style><clipPath id="clip-path" transform="translate(-531.46 -264.17)"><path class="cls-1" d="M589.71,374.22a39.34,39.34,0,0,1,.24-5.09c.18-1.37.36-3.21.6-4.57s.68-3.43,1.06-4.88.86-3,1.31-4.3,1.29-3.24,1.85-4.62a39,39,0,0,1,2.31-4.56c1.33-2.23,3.27-5.1,4.81-7.19a38.78,38.78,0,0,1,3.45-4c.89-.88,2-2.1,3-2.93,1.31-1.16,3.12-2.65,4.51-3.73.92-.71,2.22-1.58,3.2-2.21s2.32-1.41,3.33-2a48,48,0,0,1,5.92-2.84c1.2-.47,2.8-1.07,4-1.47s2.93-.86,4.2-1.19,2.8-.61,4-.83,2.29-.34,3.39-.47c.4,0,1.94-.19,2.77-.23,1.15-.06,2.14-.11,3.8-.1a58.09,58.09,0,0,1,7.92.62c1.28.18,2.75.46,3.44.61,1.16.25,2.7.64,3.85.95.87.23,2,.59,2.84.89,1.19.42,2.76,1,3.92,1.5,1.81.76,4.13,2,5.86,2.9,14,7.95,23.22,23.66,23.18,42.93-.05,30.4-23.13,58.15-51.55,62,28.42-3.82,51.5-31.57,51.55-62,0-19.27-9.18-35-23.18-42.93a51,51,0,0,1,4.44,2.8c1,.7,2.24,1.61,3.16,2.36a46.41,46.41,0,0,1,3.73,3.27c.89.91,2.1,2.08,3,3,1,1.1,2.24,2.61,3.13,3.78s1.79,2.45,2.49,3.55,1.8,2.89,2.47,4.19a57.75,57.75,0,0,1,3.68,8.53,75.13,75.13,0,0,1,2.2,8.78c.29,1.48.49,3.48.62,5s.13,3.28.18,4.68a43.45,43.45,0,0,1-.29,5.7c-.17,1.37-.39,3.19-.65,4.55s-.71,3.42-1.11,4.87-.89,3-1.36,4.28-1.31,3.22-1.89,4.6a39,39,0,0,1-2,3.91c-.75,1.32-1.85,3-2.67,4.3a45.8,45.8,0,0,1-3.26,4.33,62.15,62.15,0,0,1-5.8,6c-1.34,1.17-3.18,2.65-4.6,3.72-.92.7-2.22,1.54-3.19,2.17a61.62,61.62,0,0,1-6.45,3.5c-1.28.57-3,1.3-4.32,1.79s-2.91,1-4.18,1.34a57.34,57.34,0,0,1-6,1.36,53.67,53.67,0,0,1-6.15.7c-1.2.06-1.8.09-2.56.09-1.12,0-2.38,0-3.73-.07a57.11,57.11,0,0,1-19.47-4.48,58.24,58.24,0,0,1-10.94-6.15c-1.21-.92-2.87-2.1-4-3.13-.92-.85-2.18-1.94-3.06-2.82-1-1.05-2.39-2.5-3.35-3.63a77.63,77.63,0,0,1-5.07-7,48.78,48.78,0,0,1-2.41-4.3,40.17,40.17,0,0,1-2-4.44,88.57,88.57,0,0,1-2.68-8.57,80.15,80.15,0,0,1-1.24-8.15C589.74,377.51,589.74,375.63,589.71,374.22Z"/></clipPath><clipPath id="clip-path-2" transform="translate(-531.46 -264.17)"><path class="cls-1" d="M684.14,331.13C664.92,320,627,320.13,618,324.9a60,60,0,0,1,7.27-3.61c2.65-1,3-1.15,5.36-1.88,11.3-2.71,34-.91,45.2,5.37a43.3,43.3,0,0,1,8.3,6.35m10.64,16.14c-25.89-16.62-85.83-15.81-93.55-7.39l.66-.87a57.07,57.07,0,0,1,6.43-6.94l1.41-1.25c10.35-7.34,59.76-6.15,79.91,6.82a47.67,47.67,0,0,1,5.14,9.63m-18.26-22.08c-.4-.25-.81-.49-1.22-.72l1.66,1-.44-.26m22,43c-30-21.22-103.28-18.14-107-8.1.42-1.4.93-3.29,1.41-4.67.85-2.14,2-5,3-7,7.7-10.63,76-9.89,101.45,7.75a56.88,56.88,0,0,1,1.09,11.31v.75m-8.38-29.83a44.75,44.75,0,0,0-6.87-8.05,17.51,17.51,0,0,1,3,2.28,56,56,0,0,1,6,6.63c.8,1.11,1.9,2.56,2.65,3.71a15.93,15.93,0,0,0-4.08-4,6,6,0,0,1-.78-.54m4.1,51.58C667.94,370,591,372.05,590.4,383.23c-.31-2.69-.59-6.3-.69-9l.15-4c3.27-11.46,82.57-11.83,107.66,7.86a64.24,64.24,0,0,1-3.32,11.81M697.56,357A51.94,51.94,0,0,0,694.28,346c2.46,1.89,4.4,3.37,5.71,6.31l1.22,3.21c1.7,5.64,1.77,5.86,2.34,9.19l.09.5c-.53-2-1.25-4.67-5.73-8-.11-.08-.28-.15-.35-.26m-14.48,51.69c-20.08-17.19-84.66-14.34-85.19-5.47a2.57,2.57,0,0,0,.32,1.17,54.29,54.29,0,0,1-4.23-8.31l-1.11-2.93c-1.68-12.19,73.5-12.31,96,4.74.34.25.77.62,1.1.89a66.5,66.5,0,0,1-6.91,9.91m15.4-41.26v-.74c3.92,3.34,5.6,5.43,5.83,9.64-.18,2.52-.52,5.87-.9,8.36-.34,1.53-.75,3.57-1.16,5.08.64-3.73.06-6.41-4.91-10.72a60.8,60.8,0,0,0,1.14-11.62m-31.72,55.07c-8.77-10.83-54.6-10-54.49-3.38,0,.25.13.91,1.19,1.68l-2.87-2.22a55.47,55.47,0,0,1-6.42-6.19c-4.52-6.69,26.7-10.1,50.61-5.52,7.26,1.4,16.89,4,21.57,8.71a60.46,60.46,0,0,1-9.59,6.92m22.77-22.92a65.9,65.9,0,0,0,5.18-11c3.23,3,5.94,6.13,3.68,11.23L697,402.32a53.93,53.93,0,0,1-5.23,7.76l-.73.9c2.63-3.62,3.28-6.79-1.55-11.43m-42.6,29.82c2.55-.45,1.3-1.39,1.15-1.49-3.19-2.24-16.55-1.8-16.62.55,0,.75,1.46,1.5,4,2h0c-2.45-.56-2.6-.59-4-1-3-.91-3.29-1-5.26-1.77-1.12-.48-2.63-1.11-3.74-1.63-3.78-2-1.37-3.4,1.32-4.21,10.23-3.08,33.29-.72,34.53,4.67a52,52,0,0,1-11.3,2.85m28.74-13.23a64.4,64.4,0,0,0,8.32-8.59c1.69,1.8,5.62,6-.88,11.29-1.64,1.24-3.88,2.86-5.59,4a61.74,61.74,0,0,1-7.62,4c7.22-3.35,9.16-7,5.77-10.74"/></clipPath><clipPath id="clip-path-3" transform="translate(-531.46 -264.17)"><path class="cls-1" d="M618.76,424.17c-1-.57-2.32-1.35-3.26-2-1.51-1-3.48-2.48-4.91-3.62a71.15,71.15,0,0,1-6-5.75,38.24,38.24,0,0,1-3.49-4.23c-.87-1.25-2-2.9-2.85-4.2-.7-1.11-1.55-2.65-2.16-3.81-.7-1.32-1.51-3.14-2.08-4.51s-1.08-2.94-1.54-4.2a36.09,36.09,0,0,1-1.31-4.79,82.37,82.37,0,0,1-1.3-9.1,49.19,49.19,0,0,1,.08-8.41c.19-1.5.32-3.52.64-5s.6-3.13.94-4.45a48.59,48.59,0,0,1,1.43-4.73c.49-1.24,1.09-2.92,1.64-4.13.6-1.36,1.47-3.13,2.18-4.43.63-1.14,1.51-2.64,2.23-3.73.83-1.26,2-2.92,2.92-4.08a77.33,77.33,0,0,1,5.65-6.21c1.1-1,2.62-2.35,3.79-3.3.91-.74,2.17-1.69,3.14-2.34,1.32-.88,3.1-2,4.46-2.79.87-.5,2.05-1.13,3-1.55s2.07-1,3-1.35,1.76-.7,2.53-1c1.24-.47,2.94-1,4.22-1.35a60.08,60.08,0,0,1,6.08-1.36c.89-.16,3-.45,4.64-.57a57.4,57.4,0,0,1,11.62.22c2.76.34,4.7.77,4.72.78,1.16.26,2.7.63,3.85.93.76.21,1.77.53,2.52.78s2,.71,2.9,1,2,.86,2.92,1.25c1.37.61,3.13,1.55,4.44,2.27a44.47,44.47,0,0,0-28.17-5.2,44.47,44.47,0,0,1,28.17,5.2,70.94,70.94,0,0,1,6.5,4.3c1.27,1,2.92,2.38,4.12,3.46.94.84,2.14,2,3,3,1.05,1.17,2.43,2.76,3.4,4,.81,1,1.81,2.43,2.53,3.52.83,1.25,1.86,3,2.59,4.3.64,1.16,1.39,2.76,2,4s1.33,3.2,1.82,4.6.91,3,1.3,4.31a33.61,33.61,0,0,1,1,4.88c.18,1.37.47,3.19.58,4.57s.22,3.56.22,5.09a71.67,71.67,0,0,1-.76,9.26,43.2,43.2,0,0,1-1.17,5.42c-.39,1.29-.87,3-1.33,4.3a46.54,46.54,0,0,1-1.82,4.53c-.58,1.18-1.33,2.78-2,3.94s-1.71,2.95-2.52,4.17a58,58,0,0,1-12.49,13.46c-.92.72-2.17,1.65-3.15,2.3-1.32.87-3.13,2-4.51,2.76a58.59,58.59,0,0,1-6.49,3.06c-1.24.47-2.9,1.07-4.17,1.46s-2.88.82-4.13,1.11a57,57,0,0,1-21.15.85c-2.45-.36-4.37-.82-5.19-1-2.26-.54-4.46-1.28-4.48-1.28a55.82,55.82,0,0,1-5.82-2.3A48.8,48.8,0,0,1,618.76,424.17Z"/></clipPath><clipPath id="clip-path-4" transform="translate(-531.46 -264.17)"><path class="cls-1" d="M658.43,319.09a47.14,47.14,0,0,0-11.3.18c3.11-.3,5.62.79,4.71,2.06-2.69,3.75-24.78,3.87-24.62.13,0-1.06,2.41-1.76,3.42-2-2.54.81-3.07,1-5.36,1.88A61.56,61.56,0,0,0,618,324.9c-4.78,3.19,4,5,5.81,5.35,15.87,2.93,43.19-2.07,38.63-8.62-1.13-1.61-4-2.54-4-2.54m16.87,5.38a42.87,42.87,0,0,0-8.35-3.63c9.74,5.18,3.67,10.57-6.66,13.61-22,6.48-55.55,3.17-51.11-3.06a4.22,4.22,0,0,1,.55-.57l-1.41,1.25a57.39,57.39,0,0,0-6.43,6.94l-.66.87c-4.27,7.82,36.55,11.65,64.43,3.69,16.31-4.65,21-12.1,11.3-18.12l-1.66-1m17,14.71a55.61,55.61,0,0,0-6-6.63c13.93,14.72-27.25,25.27-61.51,24.35-18.07-.48-30.46-4.16-28.82-8.56-1,2.08-2.19,4.89-3,7-.43,1.4-1,3.25-1.41,4.67-.59,12.32,79,13,100.6-5.53,6.55-5.61,3.77-10.15,2.85-11.63-.79-1.12-1.79-2.65-2.65-3.71m8.9,16.38L700,352.35c7.65,24.82-89.12,32.24-107.66,21-2.25-1.35-2.36-2.27-2.47-3.16l-.15,4c.11,2.71.38,6.32.69,9,5.15,13.84,100.13,11.28,112.33-12.84a8.8,8.8,0,0,0,.91-5.14l-.09-.5c-1.14-5.44-1.34-6.42-2.34-9.19m2.2,29.1c.36-2.5.73-5.84.9-8.36-4,28.91-104.84,26.38-111.1,17.47a5,5,0,0,1-.34-.65l1.11,2.93a54.37,54.37,0,0,0,4.23,8.31c11,13.12,98,6.88,104-14.62.35-1.52.91-3.54,1.16-5.08M697,402.32l1.35-2.55c-12.91,21.31-85.71,21.47-94.22,12.59a55.82,55.82,0,0,0,6.42,6.19l2.87,2.22c12.65,7.62,64.94,4.43,77.62-9.79l.73-.9a56,56,0,0,0,5.23-7.76m-19.52,20.53c1.71-1.16,4-2.75,5.59-4-15.46,11.33-52,11.25-60.73,7.22,1.12.5,2.61,1.17,3.74,1.63a55.37,55.37,0,0,0,5.26,1.77c2.61.69,2.61.69,4,1h0c8.54,1.58,23.53.87,34.48-3.57a63.49,63.49,0,0,0,7.62-4"/></clipPath></defs><title>logo</title><path class="cls-2" d="M743.61,327.85,745.8,331l1.1,1.56c.34.53.66,1.08,1,1.62l2,3.24c.63,1.11,1.2,2.24,1.8,3.36,1.25,2.2,2.19,4.56,3.25,6.86.51,1.16.91,2.36,1.37,3.54s.93,2.35,1.27,3.57a91.24,91.24,0,0,1,4.57,29.79c0,1.26,0,2.52-.08,3.77l-.32,3.77-.16,1.87-.27,1.87-.56,3.73c-.22,1.23-.52,2.46-.78,3.68s-.49,2.47-.87,3.66c-.71,2.41-1.32,4.85-2.24,7.18a91.12,91.12,0,0,1-14.4,26.16,94.13,94.13,0,0,1-10.19,10.93,92.17,92.17,0,0,1-24.93,16.08A93.69,93.69,0,0,1,693.29,472a88.69,88.69,0,0,1-43.89,0c-2.39-.57-4.73-1.34-7.06-2.08s-4.61-1.68-6.86-2.66c2.28.92,4.61,1.68,6.92,2.47s4.7,1.37,7.09,1.87a89.77,89.77,0,0,0,14.49,2,88.65,88.65,0,0,0,28.88-3.19,91.73,91.73,0,0,0,13.63-5.05A89.36,89.36,0,0,0,730.29,449a89.85,89.85,0,0,0,9.54-10.82A83.82,83.82,0,0,0,747.44,426a81.22,81.22,0,0,0,5.5-13.27c.82-2.25,1.33-4.6,1.94-6.9.34-1.15.5-2.34.74-3.51s.47-2.34.64-3.52l.43-3.56.21-1.77.1-1.79.2-3.57c0-1.19,0-2.38,0-3.57a86.15,86.15,0,0,0-5.09-27.92c-.35-1.13-.84-2.21-1.28-3.31s-.87-2.21-1.38-3.28c-1.06-2.12-2-4.3-3.22-6.32-.59-1-1.15-2.07-1.76-3.08l-1.93-3c-.33-.49-.64-1-1-1.48l-1.06-1.42-2.11-2.84Z" transform="translate(-531.46 -264.17)"/><path class="cls-2" d="M702.25,301.06c12.68,20.65,26,49.36,30.34,72.13l12.64-38.43,34.3-21.45C756.38,314.52,725.32,308.45,702.25,301.06Z" transform="translate(-531.46 -264.17)"/><path class="cls-1" d="M825.44,565.84" transform="translate(-531.46 -264.17)"/><path class="cls-2" d="M588,496.49a128,128,0,0,1-32.37-31.37A130.85,130.85,0,0,1,544,445.73a128.65,128.65,0,0,1-7.93-21.1A126.05,126.05,0,0,1,531.9,380a126.87,126.87,0,0,1,37.16-79.54,127.41,127.41,0,0,1,36.59-25.13,125.35,125.35,0,0,1,86.75-6.21,124.54,124.54,0,0,0-121.68,33,122.9,122.9,0,0,0-24.47,36,124.68,124.68,0,0,0-10.45,42.15,122,122,0,0,0,4.81,43A121.77,121.77,0,0,0,560,461.89a122.47,122.47,0,0,0,31.4,29.39Z" transform="translate(-531.46 -264.17)"/><path class="cls-2" d="M628.39,510.82c-15-15-32.22-36.67-40.58-55.15L584.92,491l-24.78,25.26C579.58,510.45,607.25,509.26,628.39,510.82Z" transform="translate(-531.46 -264.17)"/><path class="cls-1" d="M831.44,565.84" transform="translate(-531.46 -264.17)"/><g class="cls-3"><g class="cls-3"><g class="cls-4"><g class="cls-3"><g class="cls-5"><path class="cls-6" d="M589.71,374.22a57.93,57.93,0,0,0,2.6,17.2A57.12,57.12,0,0,0,600.63,408,57.33,57.33,0,0,0,702.3,389.53a66.8,66.8,0,0,0,1.76-9.42c.2-1.39.2-3.27.28-4.66a54.65,54.65,0,0,0-.72-10.3,56.91,56.91,0,0,0-8.42-21.9,59.62,59.62,0,0,0-8.57-10.35,58,58,0,0,0-11.33-8.43c14,7.95,23.22,23.66,23.18,42.93-.05,30.4-23.13,58.15-51.55,62,28.42-3.82,51.5-31.57,51.55-62,0-19.27-9.18-35-23.18-42.93a56.4,56.4,0,0,0-14.57-5.81A57.31,57.31,0,0,0,605.34,335a55.61,55.61,0,0,0-8.26,11.2,57.3,57.3,0,0,0-7.37,28" transform="translate(-531.46 -264.17)"/><path class="cls-6" d="M698.48,367.4c-.05,30.4-23.13,58.15-51.55,62h-.19C596.93,431.86,578,378,600,352.81c24.06-27.49,74.9-4.56,77.71,35.06,2.16,30.4-20.11,37.9-30.81,41.5,28.42-3.82,51.5-31.57,51.55-62,0-19.27-9.18-35-23.18-42.93l-2.93-1.55c-1.32-.61-3.08-1.41-4.43-2l-2.42-.88c-.85-.27-2-.64-2.84-.89l-1.95-.52-2.06-.46-1.63-.32-1.65-.26-1.42-.2-1.42-.15-1.3-.11-1.29-.08-1.25-.05-1.24,0h-1.24L645,317l-1.3.06c-.4,0-.94.06-1.34.1l-1.43.13c-.46.06-1.06.12-1.51.19l-1.88.28a58.46,58.46,0,0,0-12.23,3.49l-3,1.32a55.56,55.56,0,0,0-6.29,3.52l-3.2,2.21c-1.37,1.1-3.2,2.57-4.51,3.73l-3,2.93c-1,1.19-2.46,2.77-3.45,4l-2.53,3.49c-.79,1.29-1.88,3-2.62,4.32l-2,3.94c-.56,1.38-1.35,3.21-1.85,4.62l-1.31,4.3c-.33,1.46-.8,3.4-1.06,4.88l-.6,4.57c-.08,1.53-.23,3.56-.24,5.09l.18,4.69c.3,2.45.77,5.72,1.24,8.15l1.18,4.36c.49,1.39,1.11,3.26,1.67,4.63l1.83,4c.72,1.3,1.64,3,2.41,4.3l2.41,3.6c.94,1.19,2.16,2.8,3.14,3.94l2.87,3.07c1.18,1.08,2.73,2.54,4,3.57l3.1,2.38c1.5,1,3.52,2.32,5.07,3.24l2.93,1.56c1.32.6,3.09,1.41,4.43,2l2.42.88c.85.27,2,.64,2.84.89l2,.52c.61.14,1.43.34,2,.47l1.64.31,1.64.27,1.42.19,1.42.15,1.3.11,1.29.08,1.25.05,1.24,0h1.24c.38,0,.88,0,1.26,0l1.3-.06,1.34-.09,1.44-.14,1.51-.18,1.86-.29a58.68,58.68,0,0,0,11.6-3.23l2.93-1.26a58.14,58.14,0,0,0,6.45-3.5l3.19-2.17c1.4-1.09,3.26-2.55,4.6-3.72l3-2.88c1.07-1.19,2.5-2.76,3.51-4l2.56-3.46c.81-1.28,1.92-3,2.67-4.3l2-3.91c.57-1.38,1.38-3.2,1.89-4.6l1.36-4.28c.34-1.46.84-3.4,1.11-4.87l.65-4.55c.1-1.71.27-4,.29-5.7l-.18-4.68c-.18-1.49-.37-3.5-.62-5l-.93-4.46c-.42-1.42-.93-3.33-1.41-4.73l-1.62-4.14c-.64-1.33-1.46-3.12-2.16-4.42l-2.23-3.75c-.86-1.23-2-2.88-2.89-4.07l-2.73-3.26c-1.09-1.12-2.52-2.63-3.66-3.69l-3-2.6a58.72,58.72,0,0,0-7.6-5.16c14,7.95,23.22,23.66,23.18,42.93" transform="translate(-531.46 -264.17)"/><path class="cls-7" d="M698.48,367.4c0,25.23-15.94,48.62-37.59,58l-2.48,1.31c-38.07,16-80.37-27.17-64.66-66,12.58-31.09,64.51-29.86,82,10.67,9.22,21.39,3,44.13-14.83,54.05,21.65-9.42,37.55-32.81,37.59-58,0-19.27-9.18-35-23.18-42.93l-2.93-1.55c-1.32-.61-3.08-1.41-4.43-2l-2.42-.88c-.85-.27-2-.64-2.84-.89l-1.95-.52-2.06-.46-1.63-.32-1.65-.26-1.42-.2-1.42-.15-1.3-.11-1.29-.08-1.25-.05-1.24,0h-1.24L645,317l-1.3.06c-.4,0-.94.06-1.34.1l-1.43.13c-.46.06-1.06.12-1.51.19l-1.88.28a58.46,58.46,0,0,0-12.23,3.49l-3,1.32a55.56,55.56,0,0,0-6.29,3.52l-3.2,2.21c-1.37,1.1-3.2,2.57-4.51,3.73l-3,2.93c-1,1.19-2.46,2.77-3.45,4l-2.53,3.49c-.79,1.29-1.88,3-2.62,4.32l-2,3.94c-.56,1.38-1.35,3.21-1.85,4.62l-1.31,4.3c-.33,1.46-.8,3.4-1.06,4.88l-.6,4.57c-.08,1.53-.23,3.56-.24,5.09l.18,4.69c.3,2.45.77,5.72,1.24,8.15l1.18,4.36c.49,1.39,1.11,3.26,1.67,4.63l1.83,4c.72,1.3,1.64,3,2.41,4.3l2.41,3.6c.94,1.19,2.16,2.8,3.14,3.94l2.87,3.07c1.18,1.08,2.73,2.54,4,3.57l3.1,2.38c1.5,1,3.52,2.32,5.07,3.24l2.93,1.56c1.32.6,3.09,1.41,4.43,2l2.42.88c.85.27,2,.64,2.84.89l2,.52c.61.14,1.43.34,2,.47l1.64.31,1.64.27,1.42.19,1.42.15,1.3.11,1.29.08,1.25.05,1.24,0h1.24c.38,0,.88,0,1.26,0l1.3-.06,1.34-.09,1.44-.14,1.51-.18,1.86-.29a58.68,58.68,0,0,0,11.6-3.23l2.93-1.26a58.14,58.14,0,0,0,6.45-3.5l3.19-2.17c1.4-1.09,3.26-2.55,4.6-3.72l3-2.88c1.07-1.19,2.5-2.76,3.51-4l2.56-3.46c.81-1.28,1.92-3,2.67-4.3l2-3.91c.57-1.38,1.38-3.2,1.89-4.6l1.36-4.28c.34-1.46.84-3.4,1.11-4.87l.65-4.55c.1-1.71.27-4,.29-5.7l-.18-4.68c-.18-1.49-.37-3.5-.62-5l-.93-4.46c-.42-1.42-.93-3.33-1.41-4.73l-1.62-4.14c-.64-1.33-1.46-3.12-2.16-4.42l-2.23-3.75c-.86-1.23-2-2.88-2.89-4.07l-2.73-3.26c-1.09-1.12-2.52-2.63-3.66-3.69l-3-2.6a58.72,58.72,0,0,0-7.6-5.16c14,7.95,23.22,23.66,23.18,42.93" transform="translate(-531.46 -264.17)"/><path class="cls-8" d="M592.09,390.68c-11.15-39.79,25.44-67.43,62.14-46.95,26.95,15,39,55.2,15,77.24,17.29-11.2,29.24-31.7,29.28-53.57,0-19.27-9.18-35-23.18-42.93l-2.93-1.55c-1.32-.61-3.08-1.41-4.43-2l-2.42-.88c-.85-.27-2-.64-2.84-.89l-1.95-.52-2.06-.46-1.63-.32-1.65-.26-1.42-.2-1.42-.15-1.3-.11-1.29-.08-1.25-.05-1.24,0h-1.24L645,317l-1.3.06c-.4,0-.94.06-1.34.1l-1.43.13c-.46.06-1.06.12-1.51.19l-1.88.28a58.46,58.46,0,0,0-12.23,3.49l-3,1.32a55.56,55.56,0,0,0-6.29,3.52l-3.2,2.21c-1.37,1.1-3.2,2.57-4.51,3.73l-3,2.93c-1,1.19-2.46,2.77-3.45,4l-2.53,3.49c-.79,1.29-1.88,3-2.62,4.32l-2,3.94c-.56,1.38-1.35,3.21-1.85,4.62l-1.31,4.3c-.33,1.46-.8,3.4-1.06,4.88l-.6,4.57c-.08,1.53-.23,3.56-.24,5.09l.18,4.69c.3,2.45.77,5.72,1.24,8.15l1.18,4.36,1.24,3.57-1.4-4.1a1.66,1.66,0,0,0-.06-.21" transform="translate(-531.46 -264.17)"/><path class="cls-8" d="M698.48,367.4c0,21.87-12,42.37-29.28,53.57h0c-6.77,5.84-25.44,17.74-52.47,2,1.46.87,3.46,2,5,2.77,1.32.6,3.09,1.41,4.43,2l2.42.88c.85.27,2,.64,2.84.89l2,.52c.61.14,1.43.34,2,.47l1.64.31,1.64.27,1.42.19,1.42.15,1.3.11,1.29.08,1.25.05,1.24,0h1.24c.38,0,.88,0,1.26,0l1.3-.06,1.34-.09,1.44-.14,1.51-.18,1.86-.29a58.68,58.68,0,0,0,11.6-3.23l2.93-1.26a58.14,58.14,0,0,0,6.45-3.5l3.19-2.17c1.4-1.09,3.26-2.55,4.6-3.72l3-2.88c1.07-1.19,2.5-2.76,3.51-4l2.56-3.46c.81-1.28,1.92-3,2.67-4.3l2-3.91c.57-1.38,1.38-3.2,1.89-4.6l1.36-4.28c.34-1.46.84-3.4,1.11-4.87l.65-4.55c.1-1.71.27-4,.29-5.7l-.18-4.68c-.18-1.49-.37-3.5-.62-5l-.93-4.46c-.42-1.42-.93-3.33-1.41-4.73l-1.62-4.14c-.64-1.33-1.46-3.12-2.16-4.42l-2.23-3.75c-.86-1.23-2-2.88-2.89-4.07l-2.73-3.26c-1.09-1.12-2.52-2.63-3.66-3.69l-3-2.6a58.72,58.72,0,0,0-7.6-5.16c14,7.95,23.22,23.66,23.18,42.93" transform="translate(-531.46 -264.17)"/><path class="cls-9" d="M590.41,383.27c-5.42-45.68,41.23-62,72.94-36.12,16.29,13.29,30.83,43.51,12.15,69.13,13.83-11.73,23-29.78,23-48.88,0-19.27-9.18-35-23.18-42.93l-2.93-1.55c-1.32-.61-3.08-1.41-4.43-2l-2.42-.88c-.85-.27-2-.64-2.84-.89l-1.95-.52-2.06-.46-1.63-.32-1.65-.26-1.42-.2-1.42-.15-1.3-.11-1.29-.08-1.25-.05-1.24,0h-1.24L645,317l-1.3.06c-.4,0-.94.06-1.34.1l-1.43.13c-.46.06-1.06.12-1.51.19l-1.88.28a58.46,58.46,0,0,0-12.23,3.49l-3,1.32a55.56,55.56,0,0,0-6.29,3.52l-3.2,2.21c-1.37,1.1-3.2,2.57-4.51,3.73l-3,2.93c-1,1.19-2.46,2.77-3.45,4l-2.53,3.49c-.79,1.29-1.88,3-2.62,4.32l-2,3.94c-.56,1.38-1.35,3.21-1.85,4.62l-1.31,4.3c-.33,1.46-.8,3.4-1.06,4.88l-.6,4.57c-.08,1.53-.23,3.56-.24,5.09l.18,4.69c.19,1.57.4,3.67.66,5.23l-.14-.87" transform="translate(-531.46 -264.17)"/><path class="cls-9" d="M698.48,367.4c0,19.1-9.15,37.15-23,48.88h0c-10.5,13.84-29.29,18.54-47.86,12l2.39.8,1.35.4,2,.52c.61.14,1.43.34,2,.47l1.64.31,1.64.27,1.42.19,1.42.15,1.3.11,1.29.08,1.25.05,1.24,0h1.24c.38,0,.88,0,1.26,0l1.3-.06,1.34-.09,1.44-.14,1.51-.18,1.86-.29a58.68,58.68,0,0,0,11.6-3.23l2.93-1.26a58.14,58.14,0,0,0,6.45-3.5l3.19-2.17c1.4-1.09,3.26-2.55,4.6-3.72l3-2.88c1.07-1.19,2.5-2.76,3.51-4l2.56-3.46c.81-1.28,1.92-3,2.67-4.3l2-3.91c.57-1.38,1.38-3.2,1.89-4.6l1.36-4.28c.34-1.46.84-3.4,1.11-4.87l.65-4.55c.1-1.71.27-4,.29-5.7l-.18-4.68c-.18-1.49-.37-3.5-.62-5l-.93-4.46c-.42-1.42-.93-3.33-1.41-4.73l-1.62-4.14c-.64-1.33-1.46-3.12-2.16-4.42l-2.23-3.75c-.86-1.23-2-2.88-2.89-4.07l-2.73-3.26c-1.09-1.12-2.52-2.63-3.66-3.69l-3-2.6a58.72,58.72,0,0,0-7.6-5.16c14,7.95,23.22,23.66,23.18,42.93" transform="translate(-531.46 -264.17)"/><path class="cls-10" d="M589.71,374.18c2.3-48.76,55.13-51.6,80.85-23.71,16.57,18,20.71,42.38,10.28,60.72a65,65,0,0,0,17.64-43.79c0-19.27-9.18-35-23.18-42.93l-2.93-1.55c-1.32-.61-3.08-1.41-4.43-2l-2.42-.88c-.85-.27-2-.64-2.84-.89l-1.95-.52-2.06-.46-1.63-.32-1.65-.26-1.42-.2-1.42-.15-1.3-.11-1.29-.08-1.25-.05-1.24,0h-1.24L645,317l-1.3.06c-.4,0-.94.06-1.34.1l-1.43.13c-.46.06-1.06.12-1.51.19l-1.88.28a58.46,58.46,0,0,0-12.23,3.49l-3,1.32a55.56,55.56,0,0,0-6.29,3.52l-3.2,2.21c-1.37,1.1-3.2,2.57-4.51,3.73l-3,2.93c-1,1.19-2.46,2.77-3.45,4l-2.53,3.49c-.79,1.29-1.88,3-2.62,4.32l-2,3.94c-.56,1.38-1.35,3.21-1.85,4.62l-1.31,4.3c-.33,1.46-.8,3.4-1.06,4.88l-.6,4.57c-.08,1.53-.23,3.56-.24,5.09v0" transform="translate(-531.46 -264.17)"/><path class="cls-10" d="M698.48,367.4a65,65,0,0,1-17.64,43.79l-1.65,2.88c-13,17.71-30.33,18.81-42.54,16.62l1.6.27.42.07,1.42.19,1.42.15,1.3.11,1.29.08,1.25.05,1.24,0h1.24c.38,0,.88,0,1.26,0l1.3-.06,1.34-.09,1.44-.14,1.51-.18,1.86-.29a58.68,58.68,0,0,0,11.6-3.23l2.93-1.26a58.14,58.14,0,0,0,6.45-3.5l3.19-2.17c1.4-1.09,3.26-2.55,4.6-3.72l3-2.88c1.07-1.19,2.5-2.76,3.51-4l2.56-3.46c.81-1.28,1.92-3,2.67-4.3l2-3.91c.57-1.38,1.38-3.2,1.89-4.6l1.36-4.28c.34-1.46.84-3.4,1.11-4.87l.65-4.55c.1-1.71.27-4,.29-5.7l-.18-4.68c-.18-1.49-.37-3.5-.62-5l-.93-4.46c-.42-1.42-.93-3.33-1.41-4.73l-1.62-4.14c-.64-1.33-1.46-3.12-2.16-4.42l-2.23-3.75c-.86-1.23-2-2.88-2.89-4.07l-2.73-3.26c-1.09-1.12-2.52-2.63-3.66-3.69l-3-2.6a58.72,58.72,0,0,0-7.6-5.16c14,7.95,23.22,23.66,23.18,42.93" transform="translate(-531.46 -264.17)"/><path class="cls-11" d="M591,362.4c9.78-41.66,65.23-43.33,89.89-2.71,8.75,14.41,10.55,32,4.71,45.8a64.46,64.46,0,0,0,12.89-38.09c0-19.27-9.18-35-23.18-42.93l-2.93-1.55c-1.32-.61-3.08-1.41-4.43-2l-2.42-.88c-.85-.27-2-.64-2.84-.89l-1.95-.52-2.06-.46-1.63-.32-1.65-.26-1.42-.2-1.42-.15-1.3-.11-1.29-.08-1.25-.05-1.24,0h-1.24L645,317l-1.3.06c-.4,0-.94.06-1.34.1l-1.43.13c-.46.06-1.06.12-1.51.19l-1.88.28a58.46,58.46,0,0,0-12.23,3.49l-3,1.32a55.56,55.56,0,0,0-6.29,3.52l-3.2,2.21c-1.37,1.1-3.2,2.57-4.51,3.73l-3,2.93c-1,1.19-2.46,2.77-3.45,4l-2.53,3.49c-.79,1.29-1.88,3-2.62,4.32l-2,3.94c-.56,1.38-1.35,3.21-1.85,4.62l-1.31,4.3c-.33,1.46-.8,3.4-1.06,4.88l-.24,1.47c.2-1.09.45-2.55.68-3.63" transform="translate(-531.46 -264.17)"/><path class="cls-11" d="M698.48,367.4a64.46,64.46,0,0,1-12.89,38.09l-.35,1c-7,16.26-21.49,25.41-39.7,25.11.69,0,1.6,0,2.29,0,.38,0,.88,0,1.26,0l1.3-.06,1.34-.09,1.44-.14,1.51-.18,1.86-.29a58.68,58.68,0,0,0,11.6-3.23l2.93-1.26a58.14,58.14,0,0,0,6.45-3.5l3.19-2.17c1.4-1.09,3.26-2.55,4.6-3.72l3-2.88c1.07-1.19,2.5-2.76,3.51-4l2.56-3.46c.81-1.28,1.92-3,2.67-4.3l2-3.91c.57-1.38,1.38-3.2,1.89-4.6l1.36-4.28c.34-1.46.84-3.4,1.11-4.87l.65-4.55c.1-1.71.27-4,.29-5.7l-.18-4.68c-.18-1.49-.37-3.5-.62-5l-.93-4.46c-.42-1.42-.93-3.33-1.41-4.73l-1.62-4.14c-.64-1.33-1.46-3.12-2.16-4.42l-2.23-3.75c-.86-1.23-2-2.88-2.89-4.07l-2.73-3.26c-1.09-1.12-2.52-2.63-3.66-3.69l-3-2.6a58.72,58.72,0,0,0-7.6-5.16c14,7.95,23.22,23.66,23.18,42.93" transform="translate(-531.46 -264.17)"/><path class="cls-12" d="M592.52,356.57c16.82-44.49,74-34.28,93.41,6.12,4,8.27,7.89,21.26,4,36.16a63.74,63.74,0,0,0,8.55-31.45c0-19.27-9.18-35-23.18-42.93l-2.93-1.55c-1.32-.61-3.08-1.41-4.43-2l-2.42-.88c-.85-.27-2-.64-2.84-.89l-1.95-.52-2.06-.46-1.63-.32-1.65-.26-1.42-.2-1.42-.15-1.3-.11-1.29-.08-1.25-.05-1.24,0h-1.24L645,317l-1.3.06c-.4,0-.94.06-1.34.1l-1.43.13c-.46.06-1.06.12-1.51.19l-1.88.28a58.46,58.46,0,0,0-12.23,3.49l-3,1.32a55.56,55.56,0,0,0-6.29,3.52l-3.2,2.21c-1.37,1.1-3.2,2.57-4.51,3.73l-3,2.93c-1,1.19-2.46,2.77-3.45,4l-2.53,3.49c-.79,1.29-1.88,3-2.62,4.32l-2,3.94c-.56,1.38-1.35,3.21-1.85,4.62l-.59,1.79.19-.6" transform="translate(-531.46 -264.17)"/><path class="cls-12" d="M698.48,367.4a63.74,63.74,0,0,1-8.55,31.45h0c-3.75,17.22-17.14,29.57-34.93,32.23l1.89-.3a58.42,58.42,0,0,0,11.25-3.17l2.93-1.26a58.14,58.14,0,0,0,6.45-3.5l3.19-2.17c1.4-1.09,3.26-2.55,4.6-3.72l3-2.88c1.07-1.19,2.5-2.76,3.51-4l2.56-3.46c.81-1.28,1.92-3,2.67-4.3l2-3.91c.57-1.38,1.38-3.2,1.89-4.6l1.36-4.28c.34-1.46.84-3.4,1.11-4.87l.65-4.55c.1-1.71.27-4,.29-5.7l-.18-4.68c-.18-1.49-.37-3.5-.62-5l-.93-4.46c-.42-1.42-.93-3.33-1.41-4.73l-1.62-4.14c-.64-1.33-1.46-3.12-2.16-4.42l-2.23-3.75c-.86-1.23-2-2.88-2.89-4.07l-2.73-3.26c-1.09-1.12-2.52-2.63-3.66-3.69l-3-2.6a58.72,58.72,0,0,0-7.6-5.16c14,7.95,23.22,23.66,23.18,42.93" transform="translate(-531.46 -264.17)"/><path class="cls-13" d="M598.94,343.26c27.13-38.77,86.81-12.08,94.51,31.32,1.07,6.05,1.43,8.09.59,15.73a62.69,62.69,0,0,0,4.44-22.91c0-19.27-9.18-35-23.18-42.93l-2.93-1.55c-1.32-.61-3.08-1.41-4.43-2l-2.42-.88c-.85-.27-2-.64-2.84-.89l-1.95-.52-2.06-.46-1.63-.32-1.65-.26-1.42-.2-1.42-.15-1.3-.11-1.29-.08-1.25-.05-1.24,0h-1.24L645,317l-1.3.06c-.4,0-.94.06-1.34.1l-1.43.13c-.46.06-1.06.12-1.51.19l-1.88.28a58.46,58.46,0,0,0-12.23,3.49l-3,1.32a55.56,55.56,0,0,0-6.29,3.52l-3.2,2.21c-1.37,1.1-3.2,2.57-4.51,3.73l-3,2.93c-1,1.19-2.46,2.77-3.45,4l-2.53,3.49c-.79,1.29-1.88,3-2.62,4.32l1.57-2.61c.19-.28.43-.67.63-.95" transform="translate(-531.46 -264.17)"/><path class="cls-13" d="M698.48,367.4A62.69,62.69,0,0,1,694,390.31l-.07,3.33c-4.17,23.94-20.53,32.46-29.91,35.41l2.09-.7,2-.74,2.93-1.26a58.14,58.14,0,0,0,6.45-3.5l3.19-2.17c1.4-1.09,3.26-2.55,4.6-3.72l3-2.88c1.07-1.19,2.5-2.76,3.51-4l2.56-3.46c.81-1.28,1.92-3,2.67-4.3l2-3.91c.57-1.38,1.38-3.2,1.89-4.6l1.36-4.28c.34-1.46.84-3.4,1.11-4.87l.65-4.55c.1-1.71.27-4,.29-5.7l-.18-4.68c-.18-1.49-.37-3.5-.62-5l-.93-4.46c-.42-1.42-.93-3.33-1.41-4.73l-1.62-4.14c-.64-1.33-1.46-3.12-2.16-4.42l-2.23-3.75c-.86-1.23-2-2.88-2.89-4.07l-2.73-3.26c-1.09-1.12-2.52-2.63-3.66-3.69l-3-2.6a58.72,58.72,0,0,0-7.6-5.16c14,7.95,23.22,23.66,23.18,42.93" transform="translate(-531.46 -264.17)"/><path class="cls-14" d="M631.19,428.07c35.9,7.07,57.66-31.36,35.82-63.25-22.51-32.9-69.61-27.54-75.21,8.55-3.7,23.84,15.08,49.91,39.39,54.7" transform="translate(-531.46 -264.17)"/><path class="cls-15" d="M626,426.12c37.37,11.55,58.84-25.69,41.95-55.81-20.54-36.65-66.4-32-74.46-1-6.72,25.9,11.38,50.28,32.51,56.81" transform="translate(-531.46 -264.17)"/><path class="cls-16" d="M618.79,422.53c32.21,16.68,60-11.61,51.33-41.25-11.49-39.41-58.53-45.36-73.3-17.53-10.51,19.81-.25,47.28,22,58.78" transform="translate(-531.46 -264.17)"/><path class="cls-17" d="M616.55,420.67c30.15,17,60.47-6.31,51.5-39.66-8.47-31.49-56.06-46.67-71.27-14.47-9.57,20.28,2.49,44.36,19.77,54.13" transform="translate(-531.46 -264.17)"/><path class="cls-18" d="M613.15,417.72c27.54,18.71,58.37.72,54.09-31.56-4.36-32.9-47.83-48.37-66.45-23.65-13.34,17.72-4.48,43.76,12.36,55.21" transform="translate(-531.46 -264.17)"/><path class="cls-19" d="M612.72,416.55c28.36,20.33,57.56-1.77,52.75-30.59-5.71-34.28-50.2-43.49-64.72-20.79-11.6,18.13-2.81,40.78,12,51.38" transform="translate(-531.46 -264.17)"/><path class="cls-20" d="M613.18,415.91c29.25,20.66,55.29-5,50.5-30.14-6.47-33.95-48.39-41.17-62.87-17.79-9.25,14.93-3.82,36,12.37,47.93" transform="translate(-531.46 -264.17)"/><path class="cls-21" d="M609.79,412c25.46,23.06,53.14,3.22,52.61-21.19-.73-33.51-40.32-42.87-56.66-26.25-13.61,13.85-8.89,35.71,4,47.44" transform="translate(-531.46 -264.17)"/><path class="cls-22" d="M610.55,411.3c24.09,21.78,53.49,1.74,50.13-25.79-3.27-26.71-41.25-37.77-56.45-16.44-10.28,14.42-4.42,32.52,6.32,42.23" transform="translate(-531.46 -264.17)"/><path class="cls-23" d="M611.51,410.62c24.5,21.45,51.18-1.85,48-25.2C656,360.31,621,350.07,606,369.76c-11.37,14.91-3.63,32.87,5.51,40.86" transform="translate(-531.46 -264.17)"/><path class="cls-24" d="M609,406.19c19.86,23.22,48,6.33,49.4-15.76,1.57-25.49-31.26-37.83-47.25-23.2-15.74,14.41-8.29,31.78-2.15,39" transform="translate(-531.46 -264.17)"/><path class="cls-25" d="M610.33,405.5c18.55,21.09,45.36,5.18,46.87-15.15,1.61-21.72-26.08-38.66-45.26-21.48-13.05,11.7-8.8,28.46-1.61,36.63" transform="translate(-531.46 -264.17)"/><path class="cls-26" d="M611.93,404.79c17.16,19.12,42.43,4.17,44.05-14.51,1.68-19.46-23.7-38-44-19.19-7.83,7.28-9.79,22.91-.1,33.7" transform="translate(-531.46 -264.17)"/><path class="cls-27" d="M613.78,404.1c15.46,15.81,39.08,4.86,41-13.88,2.19-21.33-23-34-39.66-19.85-11.23,9.51-9.76,25.11-1.34,33.73" transform="translate(-531.46 -264.17)"/><path class="cls-28" d="M612.46,399.28a22.85,22.85,0,0,0,21.59,10.2c4.45-1,18-4,19.89-19.29,2.26-18.4-19.26-31.21-35.43-21.08-9.65,6-12.53,20.42-6,30.17" transform="translate(-531.46 -264.17)"/><path class="cls-29" d="M614.38,398.7c11,16,36,10.5,38.71-8.55,1.24-8.65-3.17-16.54-12.11-21.63-2.42-1.38-11.2-5.32-22.35,2-6.66,4.36-12,16.91-4.25,28.18" transform="translate(-531.46 -264.17)"/><path class="cls-2" d="M616,398.27c11.1,14.05,33.47,9,36.27-8.15.63-3.84.79-13.54-11.24-20.63-3.62-2.14-11.18-4.78-21.11,1.55-8.69,5.54-10.6,18.78-3.92,27.23" transform="translate(-531.46 -264.17)"/><path class="cls-30" d="M617.65,397.87c11.45,13.63,31.07,6.83,33.74-7.77,2.79-15.22-15.66-27.56-29-19.41-13.91,8.47-8.33,22.88-4.72,27.18" transform="translate(-531.46 -264.17)"/><path class="cls-31" d="M617.84,395.43c3.07,4.73,9,10,19.59,8.26,5.17-.85,11.67-6.52,13.11-13.61,1.35-6.65-1.59-12.81-8.72-18.29-3.84-3-13-3.72-16.91-1.42-7.9,4.64-8.28,6-10.07,12.34-.27,1-1.37,6,3,12.72" transform="translate(-531.46 -264.17)"/><path class="cls-32" d="M620.4,397.28c4.91,5,14.11,6.61,16.84,5.47,6.86-2.85,7-2.91,10.47-7.79a15.17,15.17,0,0,0,2.18-10,18.58,18.58,0,0,0-5.66-10.49c-3-2.74-3-2.74-10.83-4.82-5-1.31-13.58,4.71-15,7-7,11.06,1.67,20.21,2,20.6" transform="translate(-531.46 -264.17)"/><path class="cls-33" d="M618.37,392.57c2,3.86,7.15,10.2,18.69,9.24,3.31-.27,10.49-5.63,11.77-11.76,1.94-9.29-5.33-15.28-5.64-15.53-3.8-3.07-9.51-4.07-9.76-4.11a15.09,15.09,0,0,0-7.42,1.2,19.52,19.52,0,0,0-6.22,4.84,64,64,0,0,0-2.94,5.87,17.42,17.42,0,0,0,1.52,10.25" transform="translate(-531.46 -264.17)"/><path class="cls-34" d="M619.33,392.38c1.26,2.23,6.24,9.41,17.55,8.48l5.46-2.35c2.8-2.73,4.65-4.53,5.66-8.47,1.69-6.61-1.91-12.34-5.85-15.5-2.6-2.08-8.63-3.39-8.68-3.4a15.61,15.61,0,0,0-7.39,1.32,14.07,14.07,0,0,0-6.75,19.92" transform="translate(-531.46 -264.17)"/><path class="cls-35" d="M620.32,392.2s3.52,4.09,3.94,4.4c1.8,1.29,4.64,2.29,6.64,3.24,1.58.74,4.07.23,5.81.09a10.35,10.35,0,0,0,5.56-2.38,16.85,16.85,0,0,0,4.94-7.52c.73-2.61,1.6-9.35-6.09-15.46a15.85,15.85,0,0,0-7.61-2.71,16.72,16.72,0,0,0-7.36,1.44c-4.71,2.14-10.86,10.52-5.83,18.9" transform="translate(-531.46 -264.17)"/><path class="cls-36" d="M621.32,392c1.8,3,6.16,7.84,15.25,7.12a10.74,10.74,0,0,0,5.63-2.56,20,20,0,0,0,4.21-6.56c1.54-5.07-.52-10.77-5.26-14.5a41,41,0,0,0-7.6-2.94,16.19,16.19,0,0,0-7.32,1.55c-.13.06-11.27,7.36-4.91,17.89" transform="translate(-531.46 -264.17)"/><path class="cls-37" d="M622.35,391.86c2,3.33,6.5,5.4,8,6.07,1.67.78,4.28.57,6.11.43a11.18,11.18,0,0,0,5.7-2.74c1.18-1.07,3.48-5.55,3.49-5.58,1.64-5-.94-10.81-4.38-13.49a17.07,17.07,0,0,0-7.65-3.24c-2.23-.23-5.25.72-7.28,1.67-.08,0-9.84,7.22-4,16.88" transform="translate(-531.46 -264.17)"/><path class="cls-38" d="M623.3,391.71a22.36,22.36,0,0,0,6.85,5.32c1.69.76,4.3.68,6.14.53,0,0,5.19-2.47,5.77-3a11.71,11.71,0,0,0,2.76-4.53c2.19-6.39-2.37-11.64-3.61-12.6a36.46,36.46,0,0,0-7.58-3.4,64.8,64.8,0,0,0-7.23,1.82c-1.77,1.21-4,3.5-4.44,5.61-.57,2.91-1.28,6.53,1.34,10.24" transform="translate(-531.46 -264.17)"/><path class="cls-39" d="M624.25,391.56s5,4.22,5.66,4.52a14.79,14.79,0,0,0,6.25.69,26.75,26.75,0,0,0,5.82-3.36,8.17,8.17,0,0,0,2-3.36,11.14,11.14,0,0,0-2.78-11.66s-7.13-3.59-7.56-3.63c-.27,0-6.9,1.91-7.17,2.09-3.72,2.54-6.23,9.45-2.26,14.71" transform="translate(-531.46 -264.17)"/><path class="cls-40" d="M625.22,391.43a12.6,12.6,0,0,0,4.43,3.58A15.4,15.4,0,0,0,636,396c.67,0,5.84-3.68,5.88-3.72a5.13,5.13,0,0,0,1.31-2.17c1.83-5.31-1.22-10.2-2-10.73-2-1.5-5-3.51-7.54-3.76-2.22-.23-5.27,1-7.11,2.26-3.07,2.15-5.2,8.66-1.4,13.59" transform="translate(-531.46 -264.17)"/><path class="cls-41" d="M626.2,391.3a8.81,8.81,0,0,0,3.19,2.6c1.85.73,4.57,1.64,6.51,1.23,2.11-.45,4.23-2.75,5.94-4.07a2.14,2.14,0,0,0,.59-1c1.93-6.25-.62-9.23-1.81-10.21-1.76-1.47-4.54-3.28-6.83-3.45s-5,1.59-7,2.41c-2.53,1-2.75,7.55-2.74,7.61a11.42,11.42,0,0,0,2.2,4.86" transform="translate(-531.46 -264.17)"/><path class="cls-42" d="M627.18,391.17a5.08,5.08,0,0,0,2,1.61c1.92.68,4.63,1.85,6.62,1.43s4.08-2.77,5.73-4.1c.18-.15.2-.51.25-.74.31-1.28,1-3.08.61-4.36a11.16,11.16,0,0,0-3.19-5.09c-1.37-1.13-3.53-2.56-5.3-2.66-2.23-.13-5,1.61-7,2.55a2.43,2.43,0,0,0-.91,1.13,9.35,9.35,0,0,0,1.22,10.23" transform="translate(-531.46 -264.17)"/><path class="cls-43" d="M628.17,391.06a1.83,1.83,0,0,0,.73.6c2,.59,4.68,2,6.72,1.63a8.55,8.55,0,0,0,4.32-3.13,11.25,11.25,0,0,0,1.6-4.66,1.11,1.11,0,0,0,0-.7,23.51,23.51,0,0,0-3.79-4.82,7.81,7.81,0,0,0-3.79-1.88,9.76,9.76,0,0,0-6.92,2.69c-1.08,1.27-1.41,3.76-1.22,5.42a11.17,11.17,0,0,0,2.39,4.85" transform="translate(-531.46 -264.17)"/><path class="cls-44" d="M628.51,389.75a3.73,3.73,0,0,0,1.31,1.13c1.65.61,3.94,1.79,5.67,1.48a5.34,5.34,0,0,0,2.91-2.13c.91-1.38,2.14-3.53,1.89-5.16-.29-1.9-2.64-3.67-4-5a4,4,0,0,0-2.27-1.12c-1.94-.09-11.08,3.66-5.48,10.81" transform="translate(-531.46 -264.17)"/><path class="cls-45" d="M627.93,386.71a19.13,19.13,0,0,0,4.49,3.92,4.73,4.73,0,0,0,2.94.79,2.54,2.54,0,0,0,1.5-1.11c.82-1.46,2.28-3.53,2-5.18,0-.05-3.76-5.3-4.83-5.36-.77,0-1.32-.06-6.35,5.64-.26.3,0,1,.22,1.3" transform="translate(-531.46 -264.17)"/><path class="cls-46" d="M635.05,390.43a.37.37,0,0,0,.18.05,44.56,44.56,0,0,0,2.27-5.29c-.21-1.54-1.76-3.91-3.31-4-1.94-.09-4.69,2.64-4.59,4.58.11,2.15,3.56,3.63,5.45,4.65" transform="translate(-531.46 -264.17)"/><path class="cls-47" d="M634.93,388.09c.89-.21,1.32-1.91,1.18-2.82s-.92-2-1.73-2.06a2.82,2.82,0,0,0-2.39,2.35c0,1.16,1.8,2.8,2.94,2.53" transform="translate(-531.46 -264.17)"/><path class="cls-48" d="M634.63,385.58c.07,0,.11-.15.1-.22a.22.22,0,0,0-.14-.17.23.23,0,0,0-.19.19c0,.09.14.22.23.2" transform="translate(-531.46 -264.17)"/></g></g></g></g><g class="cls-3"><g class="cls-49"><g class="cls-3"><g class="cls-50"><path class="cls-6" d="M618.76,424.17a57.24,57.24,0,0,1-28.85-54.62,85.66,85.66,0,0,1,1.58-9.44,83.54,83.54,0,0,1,3.07-8.86A58.23,58.23,0,0,1,601.89,339a57.63,57.63,0,0,1,29.72-19.88,57.15,57.15,0,0,1,43.69,5.34,44.47,44.47,0,0,0-28.17-5.2,44.47,44.47,0,0,1,28.17,5.2,70.94,70.94,0,0,1,6.5,4.3A57.27,57.27,0,0,1,699.39,351a54.7,54.7,0,0,1,3.12,8.91,84,84,0,0,1,1.62,9.45,55.12,55.12,0,0,1-.54,14.35,57.33,57.33,0,0,1-84.83,40.5" transform="translate(-531.46 -264.17)"/><path class="cls-6" d="M675.3,324.47a59.16,59.16,0,0,1,10.62,7.76l3,3c1,1.19,2.42,2.76,3.4,4l2.53,3.52c.78,1.28,1.86,3,2.59,4.3l2,4c.55,1.38,1.33,3.2,1.82,4.6l1.3,4.31c.32,1.46.79,3.4,1,4.88l.58,4.57c.07,1.53.22,3.56.22,5.09l-.2,4.68c-.21,1.68-.45,3.91-.74,5.57l-1,4.43c-.44,1.42-1,3.32-1.48,4.72l-1.67,4.11c-.66,1.32-1.51,3.11-2.23,4.4L694.78,406c-.89,1.22-2,2.87-3,4.05l-2.75,3.19c-1.11,1.12-2.59,2.63-3.75,3.69l-3,2.53c-1.42,1-3.31,2.4-4.77,3.36l-2.89,1.7a57.45,57.45,0,0,1-6.49,3.06l-2.08.78a60.11,60.11,0,0,1-11.38,2.74l-1.49.18-1.46.14-1.33.09-1.31.06-1.26,0h-1.24l-1.24,0-1.25-.05-1.28-.08-1.31-.11-1.4-.15-1.44-.19-1.59-.26-1.69-.32L633.5,430c-.64-.17-1.49-.38-2.12-.56l-2.36-.72c-.87-.31-2-.72-2.9-1.05l-2.92-1.25c-1.34-.66-3.13-1.55-4.44-2.27l-3.26-2c-1.49-1.06-3.47-2.48-4.91-3.62l-3.1-2.75c-1.13-1.16-2.65-2.68-3.72-3.89l-2.7-3.34c-.86-1.25-2-2.9-2.85-4.2l-2.16-3.81c-.63-1.35-1.51-3.14-2.08-4.51l-1.54-4.2c-.39-1.44-1-3.34-1.31-4.79l-.83-4.49c-.25-2.5-.51-5.84-.59-8.35l.2-4.67c.19-1.5.39-3.5.64-5l.94-4.45c.43-1.42,1-3.33,1.43-4.73l1.64-4.13c.64-1.33,1.47-3.13,2.18-4.43l2.23-3.73c.87-1.23,2-2.89,2.92-4.08l2.72-3.22c1.1-1.13,2.56-2.64,3.71-3.72l3-2.57c1.39-1,3.25-2.41,4.7-3.37l2.9-1.76a56.84,56.84,0,0,1,6.35-3.08l2.11-.81a58.1,58.1,0,0,1,12-3l1.49-.19,1.45-.13,1.34-.1L645,317l1.26,0h1.24l1.24,0,1.25.05,1.28.08,1.31.11,1.4.15c.43.06,1,.13,1.44.2l1.59.25c.51.1,1.19.22,1.69.33l1.9.42c.63.17,1.48.38,2.11.56l2.36.73c.87.31,2,.71,2.9,1l2.92,1.25c1.35.66,3.13,1.55,4.44,2.27a44.47,44.47,0,0,0-28.17-5.2h0c-49.88,14.78-32.25,68.58-1.69,83.66,34.76,17.16,66.89-10.33,55.44-47.44-4.21-13.63-16.78-36.47-53.75-36.22a44.47,44.47,0,0,1,28.17,5.2" transform="translate(-531.46 -264.17)"/><path class="cls-7" d="M675.3,324.47a60.06,60.06,0,0,1,10.62,7.76l3,3c1,1.19,2.42,2.76,3.4,4l2.53,3.52c.78,1.28,1.86,3,2.59,4.3l2,4c.55,1.38,1.33,3.2,1.82,4.6l1.3,4.31c.32,1.46.79,3.4,1,4.88l.58,4.57c.07,1.53.22,3.56.22,5.09l-.2,4.68c-.21,1.68-.45,3.91-.74,5.57l-1,4.43c-.44,1.42-1,3.32-1.48,4.72l-1.67,4.11c-.66,1.32-1.51,3.11-2.23,4.4L694.78,406c-.89,1.22-2,2.87-3,4.05l-2.75,3.19c-1.11,1.12-2.59,2.63-3.75,3.69l-3,2.53c-1.42,1-3.31,2.4-4.77,3.36l-2.89,1.7a57.45,57.45,0,0,1-6.49,3.06l-2.08.78a60.11,60.11,0,0,1-11.38,2.74l-1.49.18-1.46.14-1.33.09-1.31.06-1.26,0h-1.24l-1.24,0-1.25-.05-1.28-.08-1.31-.11-1.4-.15-1.44-.19-1.59-.26-1.69-.32L633.5,430c-.64-.17-1.49-.38-2.12-.56l-2.36-.72c-.87-.31-2-.72-2.9-1.05l-2.92-1.25c-1.34-.66-3.13-1.55-4.44-2.27l-3.26-2c-1.49-1.06-3.47-2.48-4.91-3.62l-3.1-2.75c-1.13-1.16-2.65-2.68-3.72-3.89l-2.7-3.34c-.86-1.25-2-2.9-2.85-4.2l-2.16-3.81c-.63-1.35-1.51-3.14-2.08-4.51l-1.54-4.2c-.39-1.44-1-3.34-1.31-4.79l-.83-4.49c-.25-2.5-.51-5.84-.59-8.35l.2-4.67c.19-1.5.39-3.5.64-5l.94-4.45c.43-1.42,1-3.33,1.43-4.73l1.64-4.13c.64-1.33,1.47-3.13,2.18-4.43l2.23-3.73c.87-1.23,2-2.89,2.92-4.08l2.72-3.22c1.1-1.13,2.56-2.64,3.71-3.72l3-2.57c1.39-1,3.25-2.41,4.7-3.37l2.9-1.76a56.84,56.84,0,0,1,6.35-3.08l2.11-.81a58.1,58.1,0,0,1,12-3l1.49-.19,1.45-.13,1.34-.1L645,317l1.26,0h1.24l1.24,0,1.25.05,1.28.08,1.31.11,1.4.15c.43.06,1,.13,1.44.2l1.59.25c.51.1,1.19.22,1.69.33l1.9.42c.63.17,1.48.38,2.11.56l2.36.73c.87.31,2,.71,2.9,1l2.92,1.25c1.35.66,3.13,1.55,4.44,2.27a43,43,0,0,0-8.94-3.81l-.34-.11c-42-11.7-64.26,29.29-44.7,62.57,21.95,37.34,72.93,35.58,81.42-2.83,5.39-24.38-10.93-51.13-36.38-59.63a43,43,0,0,1,8.94,3.81" transform="translate(-531.46 -264.17)"/><path class="cls-8" d="M701.21,355.56a56.94,56.94,0,0,1,2.34,9.19l.58,4.57c.07,1.53.22,3.56.22,5.09l-.2,4.68c-.21,1.68-.45,3.91-.74,5.57l-1,4.43c-.44,1.42-1,3.32-1.48,4.72l-1.67,4.11c-.66,1.32-1.51,3.11-2.23,4.4L694.78,406c-.89,1.22-2,2.87-3,4.05l-2.75,3.19c-1.11,1.12-2.59,2.63-3.75,3.69l-3,2.53c-1.42,1-3.31,2.4-4.77,3.36l-2.89,1.7a57.45,57.45,0,0,1-6.49,3.06l-2.08.78a60.11,60.11,0,0,1-11.38,2.74l-1.49.18-1.46.14-1.33.09-1.31.06-1.26,0h-1.24l-1.24,0-1.25-.05-1.28-.08-1.31-.11-1.4-.15-1.44-.19-1.59-.26-1.69-.32L633.5,430c-.64-.17-1.49-.38-2.12-.56l-2.36-.72c-.87-.31-2-.72-2.9-1.05l-2.92-1.25c-1.34-.66-3.13-1.55-4.44-2.27l-3.26-2c-1.49-1.06-3.47-2.48-4.91-3.62l-3.1-2.75c-1.13-1.16-2.65-2.68-3.72-3.89l-2.7-3.34c-.86-1.25-2-2.9-2.85-4.2l-2.16-3.81c-.63-1.35-1.51-3.14-2.08-4.51l-1.54-4.2c-.39-1.44-1-3.34-1.31-4.79l-.83-4.49c-.25-2.5-.51-5.84-.59-8.35l.2-4.67c.19-1.5.39-3.5.64-5l.94-4.45c.43-1.42,1-3.33,1.43-4.73l1.64-4.13c.64-1.33,1.47-3.13,2.18-4.43l2.23-3.73c.87-1.23,2-2.89,2.92-4.08l2.72-3.22c1.1-1.13,2.56-2.64,3.71-3.72l3-2.57c1.39-1,3.25-2.41,4.7-3.37l2.9-1.76a56.84,56.84,0,0,1,6.35-3.08l2.11-.81a58.1,58.1,0,0,1,12-3l1.49-.19,1.45-.13,1.34-.1L645,317l1.26,0h1.24l1.24,0,1.25.05,1.28.08,1.31.11,1.4.15c.43.06,1,.13,1.44.2l1.59.25c.51.1,1.19.22,1.69.33l1.9.42c.63.17,1.48.38,2.11.56l2.36.73c.87.31,2,.71,2.9,1l2.92,1.25c1.35.66,3.13,1.55,4.44,2.27l-1-.55-3.43-1.7c-40.76-17.71-69.77,19.09-55.23,54.56,17.62,43,70.62,45.37,84.69,13.08,6.53-15,2.9-29.15.15-36.27.22.59.53,1.38.73,2" transform="translate(-531.46 -264.17)"/><path class="cls-8" d="M675.3,324.47c.87.51,2,1.22,2.87,1.74l-3.44-2.06-.43-.23,1,.55" transform="translate(-531.46 -264.17)"/><path class="cls-9" d="M703.55,364.75a57.85,57.85,0,0,1,.8,9.66l-.2,4.68c-.21,1.68-.45,3.91-.74,5.57l-1,4.43c-.44,1.42-1,3.32-1.48,4.72l-1.67,4.11c-.66,1.32-1.51,3.11-2.23,4.4L694.78,406c-.89,1.22-2,2.87-3,4.05l-2.75,3.19c-1.11,1.12-2.59,2.63-3.75,3.69l-3,2.53c-1.42,1-3.31,2.4-4.77,3.36l-2.89,1.7a57.45,57.45,0,0,1-6.49,3.06l-2.08.78a60.11,60.11,0,0,1-11.38,2.74l-1.49.18-1.46.14-1.33.09-1.31.06-1.26,0h-1.24l-1.24,0-1.25-.05-1.28-.08-1.31-.11-1.4-.15-1.44-.19-1.59-.26-1.69-.32L633.5,430c-.64-.17-1.49-.38-2.12-.56l-2.36-.72c-.87-.31-2-.72-2.9-1.05l-2.92-1.25c-1.34-.66-3.13-1.55-4.44-2.27l-3.26-2c-1.49-1.06-3.47-2.48-4.91-3.62l-3.1-2.75c-1.13-1.16-2.65-2.68-3.72-3.89l-2.7-3.34c-.86-1.25-2-2.9-2.85-4.2l-2.16-3.81c-.63-1.35-1.51-3.14-2.08-4.51l-1.54-4.2c-.39-1.44-1-3.34-1.31-4.79l-.83-4.49c-.25-2.5-.51-5.84-.59-8.35l.2-4.67c.19-1.5.39-3.5.64-5l.94-4.45c.43-1.42,1-3.33,1.43-4.73l1.64-4.13c.64-1.33,1.47-3.13,2.18-4.43l2.23-3.73c.87-1.23,2-2.89,2.92-4.08l2.72-3.22c1.1-1.13,2.56-2.64,3.71-3.72l3-2.57c1.39-1,3.25-2.41,4.7-3.37l2.9-1.76a56.84,56.84,0,0,1,6.35-3.08l2.11-.81a58.1,58.1,0,0,1,12-3l1.49-.19,1.45-.13,1.34-.1L645,317l1.26,0h1.24l1.24,0,1.25.05,1.28.08,1.31.11,1.4.15c.43.06,1,.13,1.44.2l1.59.25c.51.1,1.19.22,1.69.33l1.9.42c.63.17,1.48.38,2.11.56l2.36.73,1.39.47-3-1c-42.52-12.07-66.08,30.3-46.94,64.67,22.71,40.82,74.78,37.17,85.51,3.38a47.89,47.89,0,0,0,1.52-22.92,1.66,1.66,0,0,0,0,.22" transform="translate(-531.46 -264.17)"/><path class="cls-10" d="M704.35,374.41a57.51,57.51,0,0,1-.94,10.25l-1,4.43c-.44,1.42-1,3.32-1.48,4.72l-1.67,4.11c-.66,1.32-1.51,3.11-2.23,4.4L694.78,406c-.89,1.22-2,2.87-3,4.05l-2.75,3.19c-1.11,1.12-2.59,2.63-3.75,3.69l-3,2.53c-1.42,1-3.31,2.4-4.77,3.36l-2.89,1.7a57.45,57.45,0,0,1-6.49,3.06l-2.08.78a60.11,60.11,0,0,1-11.38,2.74l-1.49.18-1.46.14-1.33.09-1.31.06-1.26,0h-1.24l-1.24,0-1.25-.05-1.28-.08-1.31-.11-1.4-.15-1.44-.19-1.59-.26-1.69-.32L633.5,430c-.64-.17-1.49-.38-2.12-.56l-2.36-.72c-.87-.31-2-.72-2.9-1.05l-2.92-1.25c-1.34-.66-3.13-1.55-4.44-2.27l-3.26-2c-1.49-1.06-3.47-2.48-4.91-3.62l-3.1-2.75c-1.13-1.16-2.65-2.68-3.72-3.89l-2.7-3.34c-.86-1.25-2-2.9-2.85-4.2l-2.16-3.81c-.63-1.35-1.51-3.14-2.08-4.51l-1.54-4.2c-.39-1.44-1-3.34-1.31-4.79l-.83-4.49c-.25-2.5-.51-5.84-.59-8.35l.2-4.67c.19-1.5.39-3.5.64-5l.94-4.45c.43-1.42,1-3.33,1.43-4.73l1.64-4.13c.64-1.33,1.47-3.13,2.18-4.43l2.23-3.73c.87-1.23,2-2.89,2.92-4.08l2.72-3.22c1.1-1.13,2.56-2.64,3.71-3.72l3-2.57c1.39-1,3.25-2.41,4.7-3.37l2.9-1.76a56.84,56.84,0,0,1,6.35-3.08l2.11-.81a58.1,58.1,0,0,1,12-3l1.49-.19,1.45-.13,1.34-.1L645,317l1.26,0h1.24l1.24,0,1.25.05,1.28.08,1.31.11,1.4.15c.43.06,1,.13,1.44.2l1.59.25.43.08-.46-.08c-45.2-7.05-63,42.84-37.54,75.57C646.8,428.63,698.91,421,703.88,381a49.22,49.22,0,0,0,.47-7c0,.12,0,.29,0,.41" transform="translate(-531.46 -264.17)"/><path class="cls-11" d="M703.41,384.66a56.12,56.12,0,0,1-2.47,9.15l-1.67,4.11c-.66,1.32-1.51,3.11-2.23,4.4L694.78,406c-.89,1.22-2,2.87-3,4.05l-2.75,3.19c-1.11,1.12-2.59,2.63-3.75,3.69l-3,2.53c-1.42,1-3.31,2.4-4.77,3.36l-2.89,1.7a57.45,57.45,0,0,1-6.49,3.06l-2.08.78a60.11,60.11,0,0,1-11.38,2.74l-1.49.18-1.46.14-1.33.09-1.31.06-1.26,0h-1.24l-1.24,0-1.25-.05-1.28-.08-1.31-.11-1.4-.15-1.44-.19-1.59-.26-1.69-.32L633.5,430c-.64-.17-1.49-.38-2.12-.56l-2.36-.72c-.87-.31-2-.72-2.9-1.05l-2.92-1.25c-1.34-.66-3.13-1.55-4.44-2.27l-3.26-2c-1.49-1.06-3.47-2.48-4.91-3.62l-3.1-2.75c-1.13-1.16-2.65-2.68-3.72-3.89l-2.7-3.34c-.86-1.25-2-2.9-2.85-4.2l-2.16-3.81c-.63-1.35-1.51-3.14-2.08-4.51l-1.54-4.2c-.39-1.44-1-3.34-1.31-4.79l-.83-4.49c-.25-2.5-.51-5.84-.59-8.35l.2-4.67c.19-1.5.39-3.5.64-5l.94-4.45c.43-1.42,1-3.33,1.43-4.73l1.64-4.13c.64-1.33,1.47-3.13,2.18-4.43l2.23-3.73c.87-1.23,2-2.89,2.92-4.08l2.72-3.22c1.1-1.13,2.56-2.64,3.71-3.72l3-2.57c1.39-1,3.25-2.41,4.7-3.37l2.9-1.76a56.84,56.84,0,0,1,6.35-3.08l2.11-.81a58.1,58.1,0,0,1,12-3l1.49-.19,1.45-.13,1.34-.1L645,317l1.26,0h1.24l1,0h-.95c-42.6.2-57.46,51.6-24.46,84.6,27,27,72.66,22.46,80.64-19-.1.62-.22,1.44-.34,2.05" transform="translate(-531.46 -264.17)"/><path class="cls-12" d="M700.94,393.81a55.51,55.51,0,0,1-3.9,8.51L694.78,406c-.89,1.22-2,2.87-3,4.05l-2.75,3.19c-1.11,1.12-2.59,2.63-3.75,3.69l-3,2.53c-1.42,1-3.31,2.4-4.77,3.36l-2.89,1.7a57.45,57.45,0,0,1-6.49,3.06l-2.08.78a60.11,60.11,0,0,1-11.38,2.74l-1.49.18-1.46.14-1.33.09-1.31.06-1.26,0h-1.24l-1.24,0-1.25-.05-1.28-.08-1.31-.11-1.4-.15-1.44-.19-1.59-.26-1.69-.32L633.5,430c-.64-.17-1.49-.38-2.12-.56l-2.36-.72c-.87-.31-2-.72-2.9-1.05l-2.92-1.25c-1.34-.66-3.13-1.55-4.44-2.27l-3.26-2c-1.49-1.06-3.47-2.48-4.91-3.62l-3.1-2.75c-1.13-1.16-2.65-2.68-3.72-3.89l-2.7-3.34c-.86-1.25-2-2.9-2.85-4.2l-2.16-3.81c-.63-1.35-1.51-3.14-2.08-4.51l-1.54-4.2c-.39-1.44-1-3.34-1.31-4.79l-.83-4.49c-.25-2.5-.51-5.84-.59-8.35l.2-4.67c.19-1.5.39-3.5.64-5l.94-4.45c.43-1.42,1-3.33,1.43-4.73l1.64-4.13c.64-1.33,1.47-3.13,2.18-4.43l2.23-3.73c.87-1.23,2-2.89,2.92-4.08l2.72-3.22c1.1-1.13,2.56-2.64,3.71-3.72l3-2.57c1.39-1,3.25-2.41,4.7-3.37l2.9-1.76a56.84,56.84,0,0,1,6.35-3.08l2.11-.81a59.31,59.31,0,0,1,11.67-2.92l-.88.13c-43.78,7.6-49.14,64.89-8.69,92.89,28.29,19.58,62.73,10.48,72.24-19.1-.24.7-.53,1.64-.79,2.33" transform="translate(-531.46 -264.17)"/><path class="cls-13" d="M697,402.32a56.54,56.54,0,0,1-5.23,7.76l-2.75,3.19c-1.11,1.12-2.59,2.63-3.75,3.69l-3,2.53c-1.42,1-3.31,2.4-4.77,3.36l-2.89,1.7a57.45,57.45,0,0,1-6.49,3.06l-2.08.78a60.11,60.11,0,0,1-11.38,2.74l-1.49.18-1.46.14-1.33.09-1.31.06-1.26,0h-1.24l-1.24,0-1.25-.05-1.28-.08-1.31-.11-1.4-.15-1.44-.19-1.59-.26-1.69-.32L633.5,430c-.64-.17-1.49-.38-2.12-.56l-2.36-.72c-.87-.31-2-.72-2.9-1.05l-2.92-1.25c-1.34-.66-3.13-1.55-4.44-2.27l-3.26-2c-1.49-1.06-3.47-2.48-4.91-3.62l-3.1-2.75c-1.13-1.16-2.65-2.68-3.72-3.89l-2.7-3.34c-.86-1.25-2-2.9-2.85-4.2l-2.16-3.81c-.63-1.35-1.51-3.14-2.08-4.51l-1.54-4.2c-.39-1.44-1-3.34-1.31-4.79l-.83-4.49c-.25-2.5-.51-5.84-.59-8.35l.2-4.67c.19-1.5.39-3.5.64-5l.94-4.45c.43-1.42,1-3.33,1.43-4.73l1.64-4.13c.64-1.33,1.47-3.13,2.18-4.43l2.23-3.73c.87-1.23,2-2.89,2.92-4.08l2.72-3.22c1.1-1.13,2.56-2.64,3.71-3.72l3-2.57c1.39-1,3.25-2.41,4.7-3.37l2.9-1.76a56.84,56.84,0,0,1,6.35-3.08l2.11-.81c.87-.3,2-.7,2.92-1l-.06,0c-43,13.59-41.31,74.47,2.63,97.22,30,15.52,54.51,2.94,64.66-15.32-.15.27-.34.64-.5.9" transform="translate(-531.46 -264.17)"/><path class="cls-14" d="M672.4,323.7c36,16.94,41.19,66.91,8.3,79.79-34.49,13.52-74-27.56-59.58-61.91,9.24-22,33.33-26.34,51.28-17.88" transform="translate(-531.46 -264.17)"/><path class="cls-15" d="M677.31,326.69c34.66,21.09,33,69.8-2.67,76.64-37.6,7.22-69.42-39.4-47.28-69.29,12.66-17.08,34.71-16.63,49.95-7.35" transform="translate(-531.46 -264.17)"/><path class="cls-16" d="M681.77,330.16c31.22,24,22.55,65.43-6.82,71.19-32.66,6.4-67.15-34.16-46.14-66.35,9.36-14.34,32.88-19.7,53-4.84" transform="translate(-531.46 -264.17)"/><path class="cls-17" d="M685.74,334.11c28.35,27.18,12.86,65.94-17.69,65.93-35.84,0-58.07-44.94-34-68.67,14.87-14.65,38.4-10,51.67,2.74" transform="translate(-531.46 -264.17)"/><path class="cls-18" d="M685.59,334.75c25.71,24.06,15,63.12-17.38,63.33-34.9.22-55.56-42.6-32-66.4,12.22-12.37,34.39-11,49.42,3.07" transform="translate(-531.46 -264.17)"/><path class="cls-19" d="M688.86,339.16c21,25.77,6.21,59.62-24.75,56.59-36-3.52-47.05-47.5-23.91-65.27,15.8-12.12,37.56-4.93,48.66,8.68" transform="translate(-531.46 -264.17)"/><path class="cls-20" d="M688.41,339.8c20.91,25.83,3.66,59.55-27.55,53.87-33.65-6.13-40.4-47.35-17.48-63.38,13.14-9.19,33.34-4.92,45,9.51" transform="translate(-531.46 -264.17)"/><path class="cls-21" d="M690.86,344.67c16.45,27.18-4.43,52.16-30,47.32-34-6.45-36.66-45.66-17.24-59.69,18-13,39-1.18,47.22,12.37" transform="translate(-531.46 -264.17)"/><path class="cls-22" d="M690.09,345.33c15.3,25.71-4.93,49.46-29.19,44.95-31.63-5.88-36.32-41.33-14.52-57.68,11.55-8.67,33.16-5,43.71,12.73" transform="translate(-531.46 -264.17)"/><path class="cls-23" d="M689.15,346c13.77,23.67-5.37,46.13-28.25,42.91-28.67-4-34.23-39.23-14.61-53.86,16.4-12.22,35.75-1.28,42.86,10.95" transform="translate(-531.46 -264.17)"/><path class="cls-24" d="M690.32,351.34c9.3,24.75-16.08,43.22-37.17,34-25-10.9-21.09-43.66.5-52.36,13.54-5.46,31,3.27,36.67,18.32" transform="translate(-531.46 -264.17)"/><path class="cls-25" d="M688.94,352c7.69,22.17-14.06,41.7-35.8,32.15-23.64-10.38-19.62-40.75,1-49.25,14.47-6,30.31,4.11,34.81,17.1" transform="translate(-531.46 -264.17)"/><path class="cls-26" d="M687.36,352.73c7.33,22-15.86,38.55-34.23,30.44-22.31-9.83-18.07-38.88,1.58-46.46,14.26-5.5,28.65,4,32.65,16" transform="translate(-531.46 -264.17)"/><path class="cls-27" d="M685.66,353.39c7,20.85-15.1,36.47-32.55,28.76-19.26-8.51-18-35.88,2-43.71,9.43-3.69,25.6.21,30.51,14.95" transform="translate(-531.46 -264.17)"/><path class="cls-28" d="M685,359.08c1.08,15.57-9.76,20.59-13.32,22.24-12.38,5.73-21.54-2.13-24.55-4.71-14.23-12.2-6.39-34.95,12.9-37.44,13.38-1.73,24.22,9.08,25,19.91" transform="translate(-531.46 -264.17)"/><path class="cls-29" d="M683.34,359.56c1.44,11.2-7.81,18.5-7.9,18.56-6,3.79-6.14,3.8-14.65,4.28,0,0-6.85-1.56-8.78-3-21.57-15.63-7.61-34.58,3.85-38.06,11.19-3.4,25.63,3.8,27.48,18.18" transform="translate(-531.46 -264.17)"/><path class="cls-2" d="M682,359.91c1.66,14.89-15.92,29.59-32.45,16.54-16.9-13.35-4.1-34.45,11.49-34.41,6.61,0,19.56,5.27,21,17.87" transform="translate(-531.46 -264.17)"/><path class="cls-30" d="M680.65,360.25c.48,5.12-.49,14.46-12.41,19.5-3.51,1.48-13.15,2.07-20.49-5.6-10.45-10.93-4-31.1,13.79-30.67,10.89.26,18.47,9.94,19.11,16.77" transform="translate(-531.46 -264.17)"/><path class="cls-31" d="M679.23,360.58c1.87,19.41-20.48,23.91-30.44,13.57-12.25-12.72-1.65-30.78,13.11-29.56a18.94,18.94,0,0,1,17.33,16" transform="translate(-531.46 -264.17)"/><path class="cls-32" d="M678.17,360.81c1.46,9.83-4.66,13.67-10,17.06-.76.48-7.53,2.72-15.11-1.26-1-.55-10.16-5.72-8.63-18,.36-2.88,4.58-10.89,12.44-12.69,6.52-1.5,19.57,3,21.35,14.92" transform="translate(-531.46 -264.17)"/><path class="cls-33" d="M677.22,366.32a54.89,54.89,0,0,1-2.94,5.87c-1.54,1.8-4.31,3.46-6.23,4.84s-5.17,1-7.42,1.2c-.72.06-9.72-1.34-14-9.36-5.28-10,2.75-24,15.9-22.13,9.13,1.28,16.66,11.35,14.65,19.58" transform="translate(-531.46 -264.17)"/><path class="cls-34" d="M676.18,366.51c-2.64,9.93-12,10.7-15.59,11-2.4.2-5.61-1.26-7.62-2.59-1.8-1.18-5.47-6-5.49-6-4.92-8.93,1.51-23.23,15.41-21,.57.09,6.71,2.88,6.74,2.91,1.28.91,2.39,1.7,5.1,5.51s1.47,10.19,1.45,10.25" transform="translate(-531.46 -264.17)"/><path class="cls-35" d="M675.13,366.7c-1.28,4.53-5.29,7.31-7.22,8.64s-5.11,1.25-7.35,1.44c-2.42.19-5.57-1.4-7.61-2.71a16.6,16.6,0,0,1-4.66-5.2,13.37,13.37,0,0,1,1.06-15.19c4.22-5.69,11.4-5.45,13.81-4.88A21.35,21.35,0,0,1,669.8,352c.39.28,3.93,4.37,4,4.4,2.91,4.36,1.54,9.67,1.38,10.26" transform="translate(-531.46 -264.17)"/><path class="cls-36" d="M674.05,366.88a16.92,16.92,0,0,1-6.22,7.62c-1.85,1.26-5.08,1.37-7.31,1.55,0,0-5.58-1.66-7.6-2.94a13.46,13.46,0,0,1-3.83-4.25c-4.44-7.57-.14-13.31,1.27-15.2,1.61-2.15,4.77-3.45,7.14-4.16a12.52,12.52,0,0,1,5.92.23c.14,0,14.34,4.66,10.63,17.15" transform="translate(-531.46 -264.17)"/><path class="cls-37" d="M673.37,364.28a8.08,8.08,0,0,1-.29,2.75A22.64,22.64,0,0,1,668.7,373c-1,.82-1.13,1-8.23,2.38-.06,0-7.26-1.07-10.51-6.41-4.51-7.41-.37-12.93,1.4-15.28,1.06-1.41,6.23-3.34,6.27-3.36a14.06,14.06,0,0,1,6,.39c4,1,8,6.07,8,6.12,2.11,2.95,1.88,5.25,1.66,7.49" transform="translate(-531.46 -264.17)"/><path class="cls-38" d="M672.11,367.17a13.49,13.49,0,0,1-4.45,5.61,73.25,73.25,0,0,1-7.23,1.82c-.06,0-7.15-1.57-9.72-5.76-4.45-7.26-.28-12.71,1.29-14.76a59.94,59.94,0,0,1,5.77-3,14.73,14.73,0,0,1,6.14.53c3.59,1,11.29,8.1,8.2,15.56" transform="translate(-531.46 -264.17)"/><path class="cls-39" d="M671.12,367.31a10.7,10.7,0,0,1-3.57,4.48c-.37.23-6.88,2.13-7.17,2.09s-7.52-3.6-7.56-3.63c-1.41-1.23-2.23-3.77-2.91-5.51-1.48-3.78.85-8.37,2.17-9.5a29.37,29.37,0,0,1,5.82-3.36c1.84-.41,4.44.16,6.25.68a72.22,72.22,0,0,1,5.66,4.52c.68,1.42,1.8,3.3,2,4.87a11.37,11.37,0,0,1-.69,5.36" transform="translate(-531.46 -264.17)"/><path class="cls-40" d="M670.12,367.45a7.82,7.82,0,0,1-2.63,3.29c-2,1.12-4.94,2.75-7.16,2.32a17,17,0,0,1-7.54-3.76c-1.17-1.08-2.55-5.61-2.55-5.64s0-5.88,1.91-7.24c1.18-.83,5.06-3.55,5.88-3.74a11.45,11.45,0,0,1,6.38.95,13.4,13.4,0,0,1,4.44,3.58c1,1.26,1.49,3.4,2.1,4.86s-.15,3.89-.83,5.38" transform="translate(-531.46 -264.17)"/><path class="cls-41" d="M669.12,367.58a5.15,5.15,0,0,1-1.8,2.23c-2,1-4.87,2.89-7.05,2.41a16.33,16.33,0,0,1-6.83-3.45c-1.31-1.21-2.46-5.09-2.46-5.13s0-4.26,1.25-6a11.39,11.39,0,0,1,5.93-4.09c1.94-.42,4.66.5,6.51,1.23a8.85,8.85,0,0,1,3.2,2.6,11.42,11.42,0,0,1,2.2,4.86,11.21,11.21,0,0,1-1,5.38" transform="translate(-531.46 -264.17)"/><path class="cls-42" d="M668.1,367.7a2.37,2.37,0,0,1-.91,1.13c-2,.94-4.76,2.69-7,2.55-1.78-.11-3.88-1.6-5.31-2.66a10.23,10.23,0,0,1-2.25-2.88c-2.06-3.49-.06-7.28,0-7.31,1.27-1.68,3.64-3.66,5.69-4.1s4.71.75,6.62,1.43a4.85,4.85,0,0,1,2,1.61,11.75,11.75,0,0,1,2.3,4.85,11.06,11.06,0,0,1-1.08,5.38" transform="translate(-531.46 -264.17)"/><path class="cls-43" d="M667.09,367.82a9.79,9.79,0,0,1-7,2.72,7.33,7.33,0,0,1-3.79-1.88,17.88,17.88,0,0,1-3.79-4.82c-.37-.74,1.56-5.33,1.59-5.36a8.32,8.32,0,0,1,4.29-3.12c2-.42,4.74,1,6.72,1.62a1.61,1.61,0,0,1,.73.61c.93,1.33,2.2,3.23,2.39,4.84a11.06,11.06,0,0,1-1.19,5.39" transform="translate(-531.46 -264.17)"/><path class="cls-44" d="M666.73,365.55c-1.79,3.37-6.61,4.15-6.66,4.15a4,4,0,0,1-2.27-1.12c-1.38-1.34-3.73-3.11-4-5-.25-1.63,1-3.78,1.9-5.16a5.31,5.31,0,0,1,2.89-2.12c1.73-.33,4,.86,5.67,1.48a4,4,0,0,1,1.32,1.12c1.34,1.52,2.12,4.87,1.17,6.66" transform="translate(-531.46 -264.17)"/><path class="cls-45" d="M666.35,363.23c-1,1.89-3.34,3.7-4.94,5.12a2.29,2.29,0,0,1-1.41.52c-1.13-.06-4.82-5.3-4.83-5.36-.24-1.65,1.23-3.72,2.05-5.18a2.47,2.47,0,0,1,1.49-1.1,4.19,4.19,0,0,1,2.92.78,39.13,39.13,0,0,1,4.5,3.92,1.34,1.34,0,0,1,.22,1.3" transform="translate(-531.46 -264.17)"/><path class="cls-46" d="M659.87,367.44c-1.55-.09-3.09-2.45-3.31-4,0-.05,2.1-5.25,2.27-5.28a.24.24,0,0,1,.18.05c1.65,1.37,5.34,2.49,5.45,4.64.1,1.94-2.64,4.69-4.59,4.58" transform="translate(-531.46 -264.17)"/><path class="cls-47" d="M659.68,365.43c-.8,0-1.61-1.26-1.73-2.06s.29-2.61,1.19-2.82c1.13-.26,2.89,1.37,2.93,2.53a2.82,2.82,0,0,1-2.39,2.35" transform="translate(-531.46 -264.17)"/><path class="cls-48" d="M659.47,363.44c-.06,0-.12-.09-.13-.15s0-.21.09-.22.22.1.22.19-.1.18-.18.18" transform="translate(-531.46 -264.17)"/></g></g></g></g></g></svg>